<svg width="20" height="20" viewBox="0 0 20 20" fill="none" xmlns="http://www.w3.org/2000/svg">
<path fill-rule="evenodd" clip-rule="evenodd" d="M9.99936 3.12309C9.98727 3.11334 9.97495 3.10349 9.9624 3.09355C9.65453 2.84953 9.20474 2.54416 8.63567 2.30007C7.48087 1.80475 5.84903 1.5722 3.98901 2.56977C1.67024 3.8134 0.532259 6.79038 1.26052 9.85628C1.99716 12.9575 4.61455 16.1512 9.78021 18.0853L9.99937 18.1674L10.2185 18.0853C15.3842 16.1512 18.0015 12.9575 18.7382 9.85628C19.4664 6.79038 18.3284 3.8134 16.0096 2.56978C14.1496 1.57221 12.5178 1.80476 11.363 2.30008C10.7939 2.54416 10.3442 2.84954 10.0363 3.09356C10.0238 3.1035 10.0115 3.11335 9.99936 3.12309ZM8.14293 3.44886C7.27185 3.07523 6.04622 2.88487 4.57982 3.67134C2.86966 4.58855 1.84853 6.92295 2.47668 9.5674C3.08707 12.1371 5.28314 15.004 9.99937 16.8312C14.7156 15.004 16.9116 12.1371 17.522 9.56741C18.1501 6.92297 17.129 4.58856 15.4188 3.67135C13.9524 2.88487 12.7268 3.07524 11.8558 3.44886C11.4119 3.63924 11.0567 3.87983 10.8128 4.07316C10.6914 4.16934 10.5994 4.2524 10.5397 4.30935C10.5098 4.33777 10.4882 4.35954 10.4751 4.37301L10.462 4.38671C10.4614 4.38728 10.461 4.38772 10.4608 4.38801C10.4606 4.38818 10.4605 4.3883 10.4604 4.38838C10.4604 4.38838 10.4604 4.38839 10.4604 4.3884L10.4603 4.38846L9.99938 4.89603L9.53841 4.38847C9.53841 4.38848 9.53827 4.38832 9.53798 4.38801C9.53771 4.38772 9.53731 4.38729 9.53677 4.38672L9.52364 4.37302C9.51055 4.35955 9.48891 4.33778 9.45908 4.30935C9.39932 4.25241 9.30732 4.16935 9.18597 4.07317C8.94204 3.87983 8.58679 3.63924 8.14293 3.44886Z" fill="#161009"/>
</svg>
