<svg width="20" height="20" viewBox="0 0 20 20" fill="none" xmlns="http://www.w3.org/2000/svg">
<path d="M9.96338 3.09038L10.0003 3.11985L10.0373 3.09039C10.3451 2.847 10.7949 2.54242 11.364 2.29897C12.5187 1.80494 14.1506 1.57299 16.0106 2.56798C18.3293 3.80836 19.4674 6.7776 18.7391 9.83553C18.0025 12.9287 15.3852 16.114 10.2195 18.0432L10.0003 18.125L9.78119 18.0432C4.61553 16.114 1.99814 12.9287 1.2615 9.83553C0.533235 6.7776 1.67122 3.80836 3.98999 2.56797C5.85 1.57298 7.48185 1.80494 8.63664 2.29896C9.20572 2.54242 9.6555 2.847 9.96338 3.09038Z" fill="#D92D20"/>
</svg>
