<svg width="20" height="20" viewBox="0 0 20 20" fill="none" xmlns="http://www.w3.org/2000/svg">
<path d="M9.16076 5.83268C9.16076 5.37244 9.53385 4.99935 9.99409 4.99935H10.0016C10.4618 4.99935 10.8349 5.37244 10.8349 5.83268C10.8349 6.29292 10.4618 6.66602 10.0016 6.66602H9.99409C9.53385 6.66602 9.16076 6.29292 9.16076 5.83268Z" fill="#333333"/>
<path fill-rule="evenodd" clip-rule="evenodd" d="M8.21385 1.46774C8.83167 1.19787 9.39003 1.04102 9.99753 1.04102C10.605 1.04102 11.1634 1.19787 11.7812 1.46774C12.3804 1.72945 13.0752 2.11614 13.9492 2.6025L17.4009 4.52346C17.8813 4.79077 18.2833 5.12652 18.5594 5.57922C18.837 6.03419 18.9559 6.55544 18.9559 7.14024L18.9559 7.19531C18.9563 7.40819 18.9567 7.62412 18.9054 7.81728C18.7763 8.30335 18.4685 8.61664 18.0917 8.78455C17.8225 8.90449 17.5348 8.94307 17.2892 8.95391V15.1515C18.2804 15.6754 18.9559 16.7168 18.9559 17.916C18.9559 18.4913 18.4895 18.9577 17.9142 18.9577H2.08088C1.50558 18.9577 1.03922 18.4913 1.03922 17.916C1.03922 16.7168 1.71467 15.6754 2.70588 15.1515V8.95392C2.46026 8.94308 2.17261 8.90449 1.9034 8.78455C1.52652 8.61664 1.2188 8.30335 1.08967 7.81728C1.03835 7.62412 1.03874 7.40819 1.03913 7.19531L1.0392 7.14024C1.0392 6.55544 1.15807 6.03419 1.43562 5.57922C1.71178 5.12652 2.11379 4.79077 2.59413 4.52346L6.04592 2.6025C6.91985 2.11614 7.61468 1.72945 8.21385 1.46774ZM8.71419 2.61323C8.17654 2.84807 7.53386 3.20497 6.62635 3.71001L3.20198 5.61571C2.85045 5.81134 2.63552 6.01252 2.50273 6.2302C2.37131 6.44563 2.2892 6.72823 2.2892 7.14024C2.2892 7.28101 2.28935 7.3659 2.29225 7.42994C2.29434 7.47623 2.29736 7.49394 2.29798 7.49714C2.31439 7.55851 2.33408 7.58536 2.34438 7.59713C2.35541 7.60973 2.37401 7.62578 2.4121 7.64274C2.50355 7.68349 2.65462 7.70768 2.8886 7.70768H17.1065C17.3404 7.70768 17.4915 7.68349 17.583 7.64275C17.621 7.62578 17.6397 7.60973 17.6507 7.59713C17.661 7.58536 17.6807 7.55851 17.6971 7.49713C17.6977 7.49393 17.7007 7.47622 17.7028 7.42994C17.7057 7.36589 17.7059 7.28101 17.7059 7.14024C17.7059 6.72823 17.6237 6.44563 17.4923 6.2302C17.3595 6.01252 17.1446 5.81134 16.7931 5.61571L13.3687 3.71001C12.4612 3.20497 11.8185 2.84807 11.2809 2.61323C10.7556 2.3838 10.3736 2.29102 9.99753 2.29102C9.62145 2.29102 9.23944 2.3838 8.71419 2.61323ZM3.95588 14.7978C4.02474 14.7933 4.09421 14.791 4.16422 14.791H6.03922V8.95768H3.95588V14.7978ZM7.28922 14.791H12.7059V8.95768H7.28922V14.791ZM13.9559 14.791H15.8309C15.9009 14.791 15.9704 14.7933 16.0392 14.7978V8.95768H13.9559V14.791ZM17.6944 17.7077H2.30066C2.40429 16.7702 3.1991 16.041 4.16422 16.041H15.8309C16.796 16.041 17.5908 16.7702 17.6944 17.7077Z" fill="#333333"/>
</svg>
