<svg width="22" height="20" viewBox="0 0 22 20" fill="none" xmlns="http://www.w3.org/2000/svg">
<path d="M10.9552 1.70846L10.9996 1.74382L11.0439 1.70847C11.4133 1.41641 11.9531 1.05091 12.6359 0.758764C14.0217 0.165929 15.9798 -0.112409 18.2119 1.08157C20.9944 2.57004 22.36 6.13312 21.4861 9.80263C20.6022 13.5144 17.4614 17.3369 11.2626 19.6518L10.9996 19.75L10.7366 19.6518C4.53781 17.3369 1.39694 13.5144 0.512965 9.80263C-0.360947 6.13312 1.00464 2.57003 3.78716 1.08156C6.01917 -0.11242 7.97739 0.165925 9.36314 0.758757C10.046 1.0509 10.5858 1.4164 10.9552 1.70846Z" fill="#999999"/>
</svg>
