<svg width="18" height="18" viewBox="0 0 18 18" fill="none" xmlns="http://www.w3.org/2000/svg">
<path d="M6.68151 17.2082C7.0447 17.416 7.34835 17.5741 7.56278 17.681L8.16455 17.9596L8.76632 17.681C8.98076 17.5741 9.2844 17.416 9.64759 17.2082C9.74572 17.1521 9.84834 17.0922 9.95483 17.0287C8.98542 16.0824 7.95947 14.6391 7.95947 12.7246C7.95947 12.3039 8.006 11.8944 8.09417 11.5006C6.28572 11.4631 4.83122 9.9854 4.83122 8.16797C4.83122 6.32702 6.3236 4.83464 8.16455 4.83464C9.79353 4.83464 11.1496 6.00314 11.4403 7.54767C12.1015 7.27604 12.8258 7.1263 13.5845 7.1263C14.5613 7.1263 15.4812 7.37457 16.2829 7.81163C16.1094 3.4919 12.5411 0.0429688 8.16455 0.0429688C3.67724 0.0429688 0.0395508 3.66873 0.0395508 8.14132C0.0395508 11.3273 2.09019 13.7702 4.01444 15.3685C4.98707 16.1764 5.95654 16.7934 6.68151 17.2082Z" fill="#B27F48"/>
<path fill-rule="evenodd" clip-rule="evenodd" d="M13.1438 17.7586C13.0319 17.703 12.8748 17.6214 12.6874 17.5145C12.314 17.3014 11.8132 16.9838 11.3094 16.5665C10.3226 15.7492 9.20947 14.4521 9.20947 12.7246C9.20947 10.3231 11.1682 8.3763 13.5845 8.3763C16.0007 8.3763 17.9595 10.3231 17.9595 12.7246C17.9595 14.4521 16.8463 15.7492 15.8596 16.5665C15.3557 16.9838 14.855 17.3014 14.4816 17.5145C14.2942 17.6214 14.137 17.703 14.0251 17.7586L13.5845 17.9596L13.1438 17.7586ZM11.9178 12.7513C11.9178 11.8308 12.6618 11.0846 13.5795 11.0846H13.5894C14.5072 11.0846 15.2511 11.8308 15.2511 12.7513C15.2511 13.6718 14.5072 14.418 13.5894 14.418H13.5795C12.6618 14.418 11.9178 13.6718 11.9178 12.7513Z" fill="#B27F48"/>
</svg>
