<svg width="18" height="19" viewBox="0 0 18 19" fill="none" xmlns="http://www.w3.org/2000/svg">
<path d="M5.66667 4.27214C5.32149 4.27214 5.04167 4.55196 5.04167 4.89714C5.04167 5.24231 5.32149 5.52214 5.66667 5.52214H12.3333C12.6785 5.52214 12.9583 5.24231 12.9583 4.89714C12.9583 4.55196 12.6785 4.27214 12.3333 4.27214H5.66667Z" fill="#333333"/>
<path d="M5.04167 9.0638C5.04167 8.71863 5.32149 8.4388 5.66667 8.4388H12.3333C12.6785 8.4388 12.9583 8.71863 12.9583 9.0638C12.9583 9.40898 12.6785 9.6888 12.3333 9.6888H5.66667C5.32149 9.6888 5.04167 9.40898 5.04167 9.0638Z" fill="#333333"/>
<path d="M5.66667 12.6055C5.32149 12.6055 5.04167 12.8853 5.04167 13.2305C5.04167 13.5756 5.32149 13.8555 5.66667 13.8555H9C9.34518 13.8555 9.625 13.5756 9.625 13.2305C9.625 12.8853 9.34518 12.6055 9 12.6055H5.66667Z" fill="#333333"/>
<path fill-rule="evenodd" clip-rule="evenodd" d="M9.48607 0.105469H8.51393C6.88821 0.105458 5.60784 0.10545 4.60737 0.232486C3.58323 0.36253 2.75804 0.635261 2.1046 1.2524C1.44612 1.8743 1.1505 2.6677 1.01046 3.65148C0.874973 4.60321 0.874985 5.8183 0.875 7.34769V10.7799C0.874985 12.3093 0.874973 13.5244 1.01046 14.4761C1.1505 15.4599 1.44612 16.2533 2.1046 16.8752C2.75804 17.4923 3.58323 17.7651 4.60737 17.8951C5.60784 18.0222 6.88822 18.0221 8.51395 18.0221H9.48611C11.1118 18.0221 12.3922 18.0222 13.3926 17.8951C14.4168 17.7651 15.242 17.4923 15.8954 16.8752C16.5539 16.2533 16.8495 15.4599 16.9895 14.4761C17.125 13.5244 17.125 12.3093 17.125 10.7799V7.34775C17.125 5.81836 17.125 4.60321 16.9895 3.65148C16.8495 2.6677 16.5539 1.8743 15.8954 1.2524C15.242 0.635262 14.4168 0.36253 13.3926 0.232487C12.3922 0.10545 11.1118 0.105459 9.48607 0.105469ZM2.96288 2.16116C3.34319 1.80199 3.86676 1.58656 4.76483 1.47253C5.67739 1.35666 6.87833 1.35547 8.55883 1.35547H9.44118C11.1217 1.35547 12.3226 1.35666 13.2352 1.47253C14.1332 1.58656 14.6568 1.80199 15.0371 2.16116C15.4124 2.51557 15.6336 2.996 15.752 3.82765C15.8735 4.68111 15.875 5.80711 15.875 7.39714V10.7305C15.875 12.3205 15.8735 13.4465 15.752 14.3C15.6336 15.1316 15.4124 15.612 15.0371 15.9664C14.6568 16.3256 14.1332 16.541 13.2352 16.6551C12.3226 16.771 11.1217 16.7721 9.44118 16.7721H8.55883C6.87833 16.7721 5.67739 16.7709 4.76483 16.6551C3.86676 16.541 3.34319 16.3256 2.96288 15.9664C2.58762 15.612 2.36637 15.1316 2.24798 14.3C2.12649 13.4465 2.125 12.3205 2.125 10.7305L2.125 7.39713C2.125 5.80711 2.12649 4.68111 2.24798 3.82765C2.36637 2.996 2.58762 2.51557 2.96288 2.16116Z" fill="#333333"/>
</svg>
