<svg width="18" height="19" viewBox="0 0 18 19" fill="none" xmlns="http://www.w3.org/2000/svg">
<path fill-rule="evenodd" clip-rule="evenodd" d="M8.99872 0.958008C9.25794 0.958008 9.49025 1.11801 9.58266 1.3602L11.5476 6.50996L16.9459 6.77395C17.2002 6.78639 17.4216 6.95186 17.5055 7.19227C17.5894 7.43267 17.5191 7.69994 17.3277 7.86791L13.2194 11.4742L14.7293 17.2585C14.7953 17.511 14.6974 17.7778 14.4838 17.9278C14.2703 18.0778 13.986 18.0793 13.7709 17.9316L8.99872 14.6559L4.22654 17.9316C4.0114 18.0793 3.72716 18.0778 3.51362 17.9278C3.30008 17.7778 3.20219 17.511 3.2681 17.2585L4.77806 11.4742L0.669746 7.86791C0.478389 7.69994 0.408062 7.43267 0.491961 7.19227C0.57586 6.95186 0.797211 6.78639 1.05153 6.77395L6.44981 6.50996L8.41479 1.3602C8.5072 1.11801 8.73951 0.958008 8.99872 0.958008ZM8.99872 3.33618L7.47211 7.33708C7.38367 7.56887 7.1665 7.7264 6.9187 7.73852L2.6547 7.94705L5.89252 10.7892C6.07019 10.9452 6.14465 11.188 6.08494 11.4168L4.90089 15.9526L8.64502 13.3825C8.85814 13.2363 9.13931 13.2363 9.35243 13.3825L13.0966 15.9526L11.9125 11.4168C11.8528 11.188 11.9273 10.9452 12.1049 10.7892L15.3428 7.94705L11.0787 7.73852C10.831 7.7264 10.6138 7.56887 10.5253 7.33708L8.99872 3.33618Z" fill="#161009"/>
</svg>
