<svg width="20" height="20" viewBox="0 0 20 20" fill="none" xmlns="http://www.w3.org/2000/svg">
<g clip-path="url(#clip0_581_967)">
<path d="M13.1667 1.84252C13.0918 1.76634 12.9961 1.71387 12.8916 1.69162C12.7871 1.66938 12.6784 1.67836 12.5789 1.71743C12.4794 1.7565 12.3937 1.82395 12.3322 1.91138C12.2708 1.99881 12.2364 2.10238 12.2334 2.20919V5.11752C12.2457 5.71536 12.4931 6.28425 12.9222 6.70079C13.3512 7.11733 13.9271 7.34791 14.5251 7.34252C15.3167 7.35085 16.4167 7.35085 17.3584 7.35085C17.4629 7.35366 17.5658 7.32528 17.6541 7.26932C17.7424 7.21336 17.8119 7.13237 17.854 7.03668C17.896 6.941 17.9086 6.83495 17.8901 6.73209C17.8716 6.62924 17.8228 6.53422 17.7501 6.45919C16.5501 5.25085 14.4001 3.07585 13.1667 1.84252Z" fill="#16B7F7"/>
<path d="M12.2997 16.05C11.9016 16.0725 11.5273 16.2465 11.2535 16.5363C10.9797 16.8261 10.8271 17.2096 10.8271 17.6083C10.8271 18.007 10.9797 18.3905 11.2535 18.6803C11.5273 18.9701 11.9016 19.1441 12.2997 19.1666H16.933C17.4935 19.1674 18.0342 18.9595 18.4497 18.5833C18.7546 18.2991 18.9736 17.935 19.0816 17.5325C19.1897 17.1299 19.1826 16.7051 19.061 16.3064C18.9394 15.9078 18.7082 15.5513 18.3939 15.2775C18.0795 15.0038 17.6946 14.8239 17.283 14.7583C17.2402 14.3897 17.1188 14.0345 16.9269 13.7169C16.735 13.3992 16.4772 13.1265 16.1708 12.9171C15.8644 12.7077 15.5167 12.5664 15.151 12.503C14.7854 12.4396 14.4104 12.4554 14.0514 12.5493C13.6923 12.6433 13.3577 12.8133 13.07 13.0477C12.7823 13.2821 12.5484 13.5756 12.3839 13.9083C12.2194 14.2409 12.1282 14.605 12.1166 14.976C12.1049 15.3469 12.1731 15.716 12.3163 16.0583" fill="#16B7F7"/>
<path d="M17.9167 9.32568V12.034C17.9167 12.284 17.55 12.4007 17.3667 12.2257C16.957 11.8242 16.4568 11.527 15.9084 11.359C15.2035 11.1508 14.4551 11.1393 13.7441 11.3258C13.0332 11.5124 12.3868 11.8898 11.875 12.4173C11.5464 12.7561 11.288 13.1566 11.115 13.5957C10.9419 14.0348 10.8575 14.5038 10.8667 14.9757C10.8668 15.0522 10.8488 15.1276 10.814 15.1957C10.7792 15.2638 10.7287 15.3226 10.6667 15.3673C10.325 15.6298 10.0492 15.9683 9.86113 16.356C9.67308 16.7437 9.57798 17.1698 9.58336 17.6007C9.58198 17.6675 9.58476 17.7343 9.5917 17.8007C9.59822 17.865 9.59161 17.93 9.57226 17.9917C9.55292 18.0534 9.52125 18.1105 9.47918 18.1596C9.4371 18.2087 9.38549 18.2487 9.32748 18.2773C9.26947 18.3058 9.20626 18.3223 9.1417 18.3257H6.72503C6.1062 18.3611 5.48687 18.2653 4.90767 18.0446C4.32846 17.8238 3.80246 17.4832 3.36417 17.0449C2.92588 16.6066 2.58519 16.0806 2.36446 15.5014C2.14373 14.9222 2.04793 14.3028 2.08336 13.684V6.30901C2.04793 5.69019 2.14373 5.07086 2.36446 4.49165C2.58519 3.91245 2.92588 3.38645 3.36417 2.94815C3.80246 2.50986 4.32846 2.16918 4.90767 1.94844C5.48687 1.72771 6.1062 1.63192 6.72503 1.66735H10.2584C10.4794 1.66735 10.6913 1.75514 10.8476 1.91142C11.0039 2.0677 11.0917 2.27967 11.0917 2.50068V4.90901C11.0909 5.3798 11.1831 5.84611 11.3629 6.2812C11.5427 6.7163 11.8066 7.11163 12.1395 7.44453C12.4724 7.77742 12.8677 8.04134 13.3028 8.22115C13.7379 8.40095 14.2042 8.49311 14.675 8.49235H17.0834C17.3044 8.49235 17.5163 8.58014 17.6726 8.73642C17.8289 8.8927 17.9167 9.10467 17.9167 9.32568Z" fill="#16B7F7"/>
</g>
<defs>
<clipPath id="clip0_581_967">
<rect width="20" height="20" fill="white"/>
</clipPath>
</defs>
</svg>
