<svg width="20" height="20" viewBox="0 0 20 20" fill="none" xmlns="http://www.w3.org/2000/svg">
<g clip-path="url(#clip0_582_7718)">
<path opacity="0.4" d="M9.82542 11.843L7.10042 14.568C6.80042 14.3013 6.50875 14.0263 6.22542 13.743C5.38272 12.8947 4.6055 11.9837 3.90042 11.018C3.25283 10.1339 2.70506 9.18088 2.26708 8.17631C1.88674 7.31729 1.68271 6.39065 1.66708 5.45131C1.6635 4.90097 1.76533 4.35503 1.96708 3.84298C2.17904 3.31359 2.50644 2.83815 2.92542 2.45131C3.14723 2.21142 3.41493 2.01847 3.71267 1.88392C4.0104 1.74937 4.33212 1.67594 4.65875 1.66798C4.89212 1.66706 5.12274 1.71831 5.33375 1.81798C5.55884 1.91986 5.75188 2.08121 5.89208 2.28465L7.82542 5.00965C7.95913 5.19028 8.07101 5.38608 8.15875 5.59298C8.23112 5.75296 8.27079 5.92579 8.27542 6.10131C8.27306 6.31095 8.21247 6.51579 8.10042 6.69298C7.9719 6.9101 7.81496 7.10908 7.63375 7.28465L7.00042 7.94298C6.9563 7.98627 6.92167 8.03825 6.89872 8.09563C6.87576 8.15302 6.86499 8.21455 6.86708 8.27631C6.86719 8.34101 6.87559 8.40542 6.89208 8.46798C6.91708 8.53465 6.94208 8.58465 6.95875 8.63465C7.18253 9.01407 7.44204 9.37125 7.73375 9.70131C8.10875 10.1346 8.50875 10.5763 8.94208 11.018C9.24208 11.3096 9.53375 11.593 9.82542 11.843Z" fill="#16B7F7"/>
<path d="M18.3083 15.2742C18.3074 15.5157 18.2651 15.7553 18.1833 15.9826C18.1591 16.0507 18.1313 16.1174 18.1 16.1826C17.9545 16.4925 17.7635 16.779 17.5333 17.0326C17.158 17.4595 16.6908 17.7957 16.1667 18.0159C16.1583 18.0159 16.15 18.0242 16.1417 18.0242C15.6335 18.2302 15.09 18.335 14.5417 18.3326C13.6043 18.3152 12.6802 18.1083 11.825 17.7242C10.8102 17.2843 9.84847 16.7308 8.95833 16.0742C8.63333 15.8326 8.30833 15.5909 8 15.3326L10.725 12.6076C10.9198 12.7568 11.1259 12.8906 11.3417 13.0076C11.3833 13.0242 11.4333 13.0492 11.4917 13.0742C11.5585 13.0981 11.6291 13.1094 11.7 13.1076C11.7637 13.109 11.8269 13.0971 11.8858 13.0727C11.9446 13.0483 11.9977 13.0119 12.0417 12.9659L12.675 12.3409C12.8506 12.1563 13.0529 11.999 13.275 11.8742C13.4517 11.7611 13.6569 11.7005 13.8667 11.6992C14.0416 11.7016 14.2143 11.7384 14.375 11.8076C14.5802 11.8954 14.7757 12.0043 14.9583 12.1326L17.7167 14.0909C17.9168 14.2217 18.0757 14.4067 18.175 14.6242C18.2615 14.8301 18.3068 15.0509 18.3083 15.2742Z" fill="#16B7F7"/>
</g>
<defs>
<clipPath id="clip0_582_7718">
<rect width="20" height="20" fill="white"/>
</clipPath>
</defs>
</svg>
