<svg width="31" height="28" viewBox="0 0 31 28" fill="none" xmlns="http://www.w3.org/2000/svg">
<path d="M18.9002 0C12.5975 0 7.48859 5.10887 7.48859 11.4122C7.48859 17.6659 12.5197 22.742 18.7545 22.8203V27.6752L26.5522 19.878C28.8616 17.7898 30.3129 14.7703 30.3129 11.4122C30.3118 5.10887 25.2023 0 18.9002 0Z" fill="#16B7F7"/>
<path d="M9.32911 22.4407V21.0556L8.19169 21.0418C4.94473 21.0015 2.30363 18.327 2.30363 15.0794C2.30363 12.4044 4.07339 10.1353 6.50314 9.38142C6.64423 8.51871 6.87402 7.68538 7.18213 6.89062C3.13581 7.42449 0 10.8886 0 15.0789C0 19.1943 3.06094 22.6469 7.02548 23.251V28.0011L12.7103 22.3163C12.0301 21.927 11.3903 21.4778 10.7965 20.9733L9.32911 22.4407Z" fill="#16B7F7"/>
</svg>
