<svg width="12" height="12" viewBox="0 0 12 12" fill="none" xmlns="http://www.w3.org/2000/svg">
<g clip-path="url(#clip0_681_2683)">
<path fill-rule="evenodd" clip-rule="evenodd" d="M0.75 6C0.75 3.10051 3.10051 0.75 6 0.75C8.8995 0.75 11.25 3.10051 11.25 6C11.25 8.8995 8.8995 11.25 6 11.25C3.10051 11.25 0.75 8.8995 0.75 6ZM7.85633 5.35985C8.00277 5.2134 8.00277 4.97596 7.85633 4.82952C7.70988 4.68307 7.47244 4.68307 7.326 4.82952L5.46984 6.68567L4.67434 5.89018C4.5279 5.74373 4.29046 5.74373 4.14401 5.89018C3.99757 6.03662 3.99757 6.27406 4.14401 6.42051L5.20467 7.48117C5.35112 7.62761 5.58856 7.62761 5.735 7.48117L7.85633 5.35985Z" fill="white"/>
</g>
<defs>
<clipPath id="clip0_681_2683">
<rect width="12" height="12" fill="white"/>
</clipPath>
</defs>
</svg>
