<svg width="30" height="30" viewBox="0 0 30 30" fill="none" xmlns="http://www.w3.org/2000/svg">
<path d="M15 2.5C12.5277 2.5 10.111 3.23311 8.05538 4.60663C5.99976 5.98015 4.39761 7.93238 3.45151 10.2165C2.50542 12.5005 2.25787 15.0139 2.74019 17.4386C3.2225 19.8634 4.41301 22.0907 6.16117 23.8388C7.90933 25.587 10.1366 26.7775 12.5614 27.2598C14.9861 27.7421 17.4995 27.4946 19.7836 26.5485C22.0676 25.6024 24.0199 24.0002 25.3934 21.9446C26.7669 19.889 27.5 17.4723 27.5 15C27.4947 11.6864 26.1761 8.51007 23.833 6.16701C21.4899 3.82395 18.3136 2.50529 15 2.5ZM20.4375 19.4625C20.3548 19.6043 20.2361 19.7217 20.0934 19.8029C19.9507 19.8841 19.7892 19.9262 19.625 19.925C19.4564 19.928 19.2909 19.8801 19.15 19.7875L15.275 17.475C14.78 17.1533 14.3695 16.7175 14.078 16.2041C13.7865 15.6908 13.6226 15.1149 13.6 14.525V9.4C13.6 9.15136 13.6988 8.9129 13.8746 8.73709C14.0504 8.56127 14.2889 8.4625 14.5375 8.4625C14.7861 8.4625 15.0246 8.56127 15.2004 8.73709C15.3762 8.9129 15.475 9.15136 15.475 9.4V14.525C15.4985 14.7897 15.5787 15.0461 15.7103 15.277C15.8419 15.5078 16.0217 15.7075 16.2375 15.8625L20.1125 18.175C20.2198 18.2368 20.3136 18.3196 20.3883 18.4184C20.463 18.5171 20.5171 18.6299 20.5474 18.75C20.5777 18.8701 20.5836 18.995 20.5647 19.1174C20.5459 19.2398 20.5026 19.3571 20.4375 19.4625Z" fill="#16B7F7"/>
</svg>
