<svg width="20" height="20" viewBox="0 0 20 20" fill="none" xmlns="http://www.w3.org/2000/svg">
<path d="M12.9165 10.9585H11.1082C10.7547 10.9586 10.4046 10.8891 10.078 10.7539C9.7514 10.6186 9.45463 10.4204 9.20466 10.1704C8.9547 9.92043 8.75643 9.62366 8.6212 9.29705C8.48597 8.97043 8.41643 8.62037 8.41653 8.26686V6.45853C8.41664 6.37642 8.40055 6.2951 8.36918 6.21922C8.33781 6.14334 8.29178 6.0744 8.23372 6.01634C8.17566 5.95828 8.10672 5.91225 8.03084 5.88088C7.95496 5.84951 7.87364 5.83342 7.79153 5.83353H5.14987C4.68547 5.80692 4.22069 5.8788 3.78601 6.04444C3.35134 6.21009 2.9566 6.46575 2.62768 6.79467C2.29876 7.12359 2.04309 7.51833 1.87745 7.95301C1.71181 8.38768 1.63993 8.85246 1.66653 9.31686V14.8502C1.63993 15.3146 1.71181 15.7794 1.87745 16.214C2.04309 16.6487 2.29876 17.0435 2.62768 17.3724C2.9566 17.7013 3.35134 17.957 3.78601 18.1226C4.22069 18.2883 4.68547 18.3601 5.14987 18.3335H10.0582C10.5226 18.3601 10.9874 18.2883 11.4221 18.1226C11.8567 17.957 12.2515 17.7013 12.5804 17.3724C12.9093 17.0435 13.165 16.6487 13.3306 16.214C13.4963 15.7794 13.5681 15.3146 13.5415 14.8502V11.5835C13.5416 11.5014 13.5256 11.4201 13.4942 11.3442C13.4628 11.2683 13.4168 11.1994 13.3587 11.1413C13.3007 11.0833 13.2317 11.0372 13.1558 11.0059C13.08 10.9745 12.9986 10.9584 12.9165 10.9585Z" fill="#16B7F7"/>
<path d="M14.8497 1.66556H9.94134C9.48954 1.6398 9.03729 1.70757 8.61288 1.86463C8.18847 2.02169 7.80105 2.26466 7.47487 2.57833C7.14868 2.892 6.89075 3.26962 6.71721 3.68756C6.54367 4.1055 6.45827 4.55476 6.46634 5.00722C6.51634 5.00722 6.55801 4.99889 6.60801 4.99889H11.5163C11.9807 4.97229 12.4455 5.04416 12.8802 5.20981C13.3149 5.37545 13.7096 5.63112 14.0385 5.96004C14.3675 6.28896 14.6231 6.6837 14.7888 7.11837C14.9544 7.55304 15.0263 8.01782 14.9997 8.48222V14.0239C14.9997 14.0739 14.9913 14.1156 14.9913 14.1572C15.4435 14.167 15.8929 14.083 16.311 13.9106C16.7292 13.7381 17.1071 13.481 17.421 13.1553C17.7349 12.8297 17.978 12.4426 18.1349 12.0184C18.2919 11.5942 18.3593 11.1421 18.333 10.6906V5.14889C18.3596 4.68449 18.2877 4.21971 18.1221 3.78504C17.9565 3.35037 17.7008 2.95562 17.3719 2.6267C17.0429 2.29778 16.6482 2.04212 16.2135 1.87647C15.7789 1.71083 15.3141 1.63895 14.8497 1.66556Z" fill="#16B7F7"/>
<path d="M9.9832 5.95981C9.92724 5.90208 9.85545 5.86219 9.77688 5.84517C9.6983 5.82815 9.61644 5.83476 9.54161 5.86416C9.46678 5.89355 9.40231 5.94443 9.35633 6.01039C9.31035 6.07634 9.28491 6.15442 9.2832 6.23481V8.41981C9.29219 8.86916 9.47866 9.2967 9.80189 9.60899C10.1251 9.92129 10.5588 10.0929 11.0082 10.0865C11.5999 10.0948 12.4249 10.0948 13.1332 10.0948C13.2115 10.0974 13.2888 10.0765 13.3551 10.0347C13.4214 9.99286 13.4736 9.93214 13.505 9.86034C13.5364 9.78855 13.5456 9.70899 13.5313 9.63194C13.517 9.55489 13.4799 9.4839 13.4249 9.42814C12.5165 8.51814 10.8999 6.89314 9.9832 5.95981Z" fill="#16B7F7"/>
</svg>
