<svg width="20" height="20" viewBox="0 0 20 20" fill="none" xmlns="http://www.w3.org/2000/svg">
<g clip-path="url(#clip0_624_24122)">
<path d="M13.9588 2.96602V1.66602C13.9588 1.50026 13.893 1.34128 13.7758 1.22407C13.6585 1.10686 13.4996 1.04102 13.3338 1.04102C13.1681 1.04102 13.0091 1.10686 12.8919 1.22407C12.7747 1.34128 12.7088 1.50026 12.7088 1.66602V2.91602H7.29214V1.66602C7.29214 1.50026 7.2263 1.34128 7.10909 1.22407C6.99188 1.10686 6.8329 1.04102 6.66714 1.04102C6.50138 1.04102 6.34241 1.10686 6.2252 1.22407C6.10799 1.34128 6.04214 1.50026 6.04214 1.66602V2.96602C5.10834 2.97415 4.21558 3.35093 3.55831 4.01429C2.90104 4.67765 2.5325 5.57384 2.53298 6.50768C2.52956 6.56447 2.53781 6.62135 2.55722 6.67482C2.57663 6.7283 2.60678 6.77723 2.64581 6.81861C2.68485 6.85999 2.73195 6.89293 2.7842 6.91542C2.83645 6.9379 2.89276 6.94945 2.94964 6.94935H17.0496C17.1065 6.94945 17.1628 6.9379 17.2151 6.91542C17.2673 6.89293 17.3144 6.85999 17.3535 6.81861C17.3925 6.77723 17.4227 6.7283 17.4421 6.67482C17.4615 6.62135 17.4697 6.56447 17.4663 6.50768C17.4668 5.57413 17.0985 4.67818 16.4416 4.01487C15.7847 3.35156 14.8923 2.97459 13.9588 2.96602Z" fill="#16B7F7"/>
<path d="M16.6667 8.19922H3.33333C3.11232 8.19922 2.90036 8.28702 2.74408 8.4433C2.5878 8.59958 2.5 8.81154 2.5 9.03255V14.1659C2.5 16.6659 3.75 18.3326 6.66667 18.3326H13.3333C16.25 18.3326 17.5 16.6659 17.5 14.1659V9.03255C17.5 8.81154 17.4122 8.59958 17.2559 8.4433C17.0996 8.28702 16.8877 8.19922 16.6667 8.19922ZM7.675 15.1742C7.63541 15.2101 7.59366 15.2435 7.55 15.2742C7.50356 15.3058 7.45311 15.331 7.4 15.3492C7.35278 15.3733 7.30222 15.3901 7.25 15.3992C7.19493 15.4089 7.13923 15.4145 7.08333 15.4159C6.97444 15.4146 6.86685 15.3919 6.76667 15.3492C6.66468 15.3089 6.57134 15.2495 6.49167 15.1742C6.33674 15.0162 6.24995 14.8038 6.24995 14.5826C6.24995 14.3613 6.33674 14.1489 6.49167 13.9909C6.57134 13.9156 6.66468 13.8562 6.76667 13.8159C6.91864 13.7493 7.08761 13.7318 7.25 13.7659C7.30222 13.775 7.35278 13.7918 7.4 13.8159C7.45311 13.8341 7.50356 13.8593 7.55 13.8909L7.675 13.9909C7.82993 14.1489 7.91671 14.3613 7.91671 14.5826C7.91671 14.8038 7.82993 15.0162 7.675 15.1742ZM7.675 12.2576C7.51703 12.4125 7.30459 12.4993 7.08333 12.4993C6.86207 12.4993 6.64964 12.4125 6.49167 12.2576C6.33674 12.0996 6.24995 11.8871 6.24995 11.6659C6.24995 11.4446 6.33674 11.2322 6.49167 11.0742C6.60885 10.9586 6.75766 10.8803 6.91932 10.8491C7.08098 10.818 7.24824 10.8354 7.4 10.8992C7.503 10.9375 7.59673 10.9971 7.675 11.0742C7.82993 11.2322 7.91671 11.4446 7.91671 11.6659C7.91671 11.8871 7.82993 12.0996 7.675 12.2576ZM10.5917 15.1742C10.4347 15.3311 10.2219 15.4193 10 15.4193C9.77808 15.4193 9.56525 15.3311 9.40833 15.1742C9.25141 15.0173 9.16326 14.8045 9.16326 14.5826C9.16326 14.3606 9.25141 14.1478 9.40833 13.9909C9.56525 13.834 9.77808 13.7458 10 13.7458C10.2219 13.7458 10.4347 13.834 10.5917 13.9909C10.7486 14.1478 10.8367 14.3606 10.8367 14.5826C10.8367 14.8045 10.7486 15.0173 10.5917 15.1742ZM10.5917 12.2576L10.4667 12.3576C10.4202 12.3891 10.3698 12.4143 10.3167 12.4326C10.2694 12.4566 10.2189 12.4735 10.1667 12.4826C10.1116 12.4922 10.0559 12.4978 10 12.4992C9.89026 12.5003 9.78139 12.4795 9.67978 12.4381C9.57818 12.3966 9.48587 12.3352 9.40826 12.2576C9.33066 12.18 9.26931 12.0877 9.22783 11.9861C9.18635 11.8845 9.16555 11.7756 9.16667 11.6659C9.1699 11.4453 9.2562 11.234 9.40833 11.0742C9.4866 10.9971 9.58033 10.9375 9.68333 10.8992C9.83509 10.8354 10.0024 10.818 10.164 10.8491C10.3257 10.8803 10.4745 10.9586 10.5917 11.0742C10.7466 11.2322 10.8334 11.4446 10.8334 11.6659C10.8334 11.8871 10.7466 12.0996 10.5917 12.2576ZM13.5083 15.1742C13.3514 15.3311 13.1386 15.4193 12.9167 15.4193C12.6947 15.4193 12.4819 15.3311 12.325 15.1742C12.1681 15.0173 12.0799 14.8045 12.0799 14.5826C12.0799 14.3606 12.1681 14.1478 12.325 13.9909C12.4027 13.9132 12.4949 13.8516 12.5965 13.8095C12.698 13.7675 12.8068 13.7458 12.9167 13.7458C13.0265 13.7458 13.1354 13.7675 13.2369 13.8095C13.3384 13.8516 13.4306 13.9132 13.5083 13.9909C13.586 14.0686 13.6477 14.1608 13.6897 14.2623C13.7318 14.3639 13.7534 14.4727 13.7534 14.5826C13.7534 14.6924 13.7318 14.8012 13.6897 14.9028C13.6477 15.0043 13.586 15.0965 13.5083 15.1742ZM13.5083 12.2576L13.3833 12.3576C13.3369 12.3891 13.2864 12.4143 13.2333 12.4326C13.1861 12.4566 13.1356 12.4735 13.0833 12.4826C13.0282 12.4918 12.9725 12.4974 12.9167 12.4992C12.8069 12.5003 12.6981 12.4795 12.5964 12.4381C12.4948 12.3966 12.4025 12.3352 12.3249 12.2576C12.2473 12.18 12.186 12.0877 12.1445 11.9861C12.103 11.8845 12.0822 11.7756 12.0833 11.6659C12.0866 11.4453 12.1729 11.234 12.325 11.0742C12.4047 10.9989 12.498 10.9395 12.6 10.8992C12.752 10.8326 12.9209 10.8151 13.0833 10.8492C13.1356 10.8583 13.1861 10.8751 13.2333 10.8992C13.2864 10.9174 13.3369 10.9427 13.3833 10.9742L13.5083 11.0742C13.6633 11.2322 13.75 11.4446 13.75 11.6659C13.75 11.8871 13.6633 12.0996 13.5083 12.2576Z" fill="#16B7F7"/>
</g>
<defs>
<clipPath id="clip0_624_24122">
<rect width="20" height="20" fill="white"/>
</clipPath>
</defs>
</svg>
