<svg width="20" height="20" viewBox="0 0 20 20" fill="none" xmlns="http://www.w3.org/2000/svg">
<g clip-path="url(#clip0_934_2040)">
<path d="M17.5 4.98307C14.725 4.70807 11.9333 4.56641 9.15 4.56641C7.49685 4.56656 5.84475 4.65 4.2 4.81641L2.5 4.98307" stroke="#E50930" stroke-width="1.5" stroke-linecap="round" stroke-linejoin="round"/>
<path d="M7.08398 4.14102L7.26732 3.04935C7.40065 2.25768 7.50065 1.66602 8.90898 1.66602H11.0923C12.5007 1.66602 12.609 2.29102 12.734 3.05768L12.9173 4.14102" stroke="#E50930" stroke-width="1.5" stroke-linecap="round" stroke-linejoin="round"/>
<path d="M12.6743 18.3339H7.32435C4.99935 18.3339 4.92435 17.3172 4.83268 16.0089L4.29102 7.61719" stroke="#E50930" stroke-width="1.5" stroke-linecap="round" stroke-linejoin="round"/>
<path d="M15.7077 7.61719L15.166 16.0089" stroke="#E50930" stroke-width="1.5" stroke-linecap="round" stroke-linejoin="round"/>
<path d="M8.60742 13.75H11.3824" stroke="#E50930" stroke-width="1.5" stroke-linecap="round" stroke-linejoin="round"/>
<path d="M10.6836 10.416H12.0836" stroke="#E50930" stroke-width="1.5" stroke-linecap="round" stroke-linejoin="round"/>
<path d="M7.91602 10.416H8.60768" stroke="#E50930" stroke-width="1.5" stroke-linecap="round" stroke-linejoin="round"/>
</g>
<defs>
<clipPath id="clip0_934_2040">
<rect width="20" height="20" fill="white"/>
</clipPath>
</defs>
</svg>
