<svg width="20" height="20" viewBox="0 0 20 20" fill="none" xmlns="http://www.w3.org/2000/svg">
<g clip-path="url(#clip0_856_2433)">
<path d="M9.16699 1.66797H7.50033C3.33366 1.66797 1.66699 3.33464 1.66699 7.5013V12.5013C1.66699 16.668 3.33366 18.3346 7.50033 18.3346H12.5003C16.667 18.3346 18.3337 16.668 18.3337 12.5013V10.8346" stroke="#16B7F7" stroke-width="1.5" stroke-linecap="round" stroke-linejoin="round"/>
<path d="M13.3668 2.51639L6.80011 9.08306C6.51862 9.39183 6.32824 9.7726 6.25011 10.1831L5.89178 12.6914C5.84825 12.8864 5.85467 13.0893 5.91045 13.2811C5.96623 13.473 6.06956 13.6477 6.21085 13.789C6.35214 13.9303 6.52682 14.0336 6.7187 14.0894C6.91057 14.1452 7.11343 14.1516 7.30844 14.1081L9.81678 13.7497C10.226 13.6681 10.6059 13.4781 10.9168 13.1997L17.4834 6.63306C18.6168 5.49972 19.1501 4.18306 17.4834 2.51639C15.8168 0.849722 14.5001 1.38306 13.3668 2.51639Z" stroke="#16B7F7" stroke-width="1.5" stroke-linecap="round" stroke-linejoin="round"/>
<path d="M12.4248 3.45703C12.7011 4.43825 13.2248 5.33209 13.9456 6.0529C14.6664 6.77372 15.5602 7.29737 16.5415 7.5737" stroke="#16B7F7" stroke-width="1.5" stroke-linecap="round" stroke-linejoin="round"/>
</g>
<defs>
<clipPath id="clip0_856_2433">
<rect width="20" height="20" fill="white"/>
</clipPath>
</defs>
</svg>
