<svg width="20" height="20" viewBox="0 0 20 20" fill="none" xmlns="http://www.w3.org/2000/svg">
<g clip-path="url(#clip0_582_7682)">
<path d="M16.2586 4.87632L11.3086 2.01798C10.9092 1.78865 10.4567 1.66797 9.9961 1.66797C9.53553 1.66797 9.083 1.78865 8.6836 2.01798L3.74193 4.87632C3.34335 5.10731 3.01261 5.43917 2.78294 5.83852C2.55328 6.23787 2.4328 6.69064 2.4336 7.15132V12.8513C2.43489 13.3116 2.55626 13.7635 2.78571 14.1625C3.01517 14.5615 3.34476 14.8937 3.74193 15.1263L8.69193 17.9847C9.09134 18.214 9.54387 18.3347 10.0044 18.3347C10.465 18.3347 10.9175 18.214 11.3169 17.9847L16.2669 15.1263C16.6655 14.8953 16.9963 14.5635 17.2259 14.1641C17.4556 13.7648 17.5761 13.312 17.5753 12.8513V7.15132C17.5716 6.69055 17.4484 6.23863 17.2176 5.83982C16.9868 5.44101 16.6563 5.109 16.2586 4.87632ZM10.0003 6.11798C10.3843 6.11798 10.7597 6.23186 11.079 6.44521C11.3983 6.65857 11.6472 6.96181 11.7941 7.31661C11.9411 7.6714 11.9795 8.06181 11.9046 8.43845C11.8297 8.8151 11.6448 9.16107 11.3732 9.43262C11.1017 9.70416 10.7557 9.88909 10.3791 9.96401C10.0024 10.0389 9.61201 10.0005 9.25722 9.85352C8.90243 9.70656 8.59918 9.45769 8.38583 9.13838C8.17247 8.81908 8.0586 8.44368 8.0586 8.05965C8.05816 7.80454 8.10808 7.55186 8.2055 7.31609C8.30293 7.08032 8.44593 6.86609 8.62632 6.68571C8.80671 6.50532 9.02093 6.36231 9.2567 6.26489C9.49247 6.16747 9.74516 6.11755 10.0003 6.11798ZM12.2336 13.8847H7.76693C7.6142 13.8859 7.46405 13.8452 7.3329 13.7669C7.20174 13.6887 7.09462 13.5759 7.02323 13.4408C6.95185 13.3058 6.91894 13.1537 6.92812 13.0013C6.9373 12.8488 6.9882 12.7018 7.07526 12.5763C7.41326 12.1233 7.85574 11.7586 8.36502 11.5134C8.87431 11.2682 9.43532 11.1497 10.0003 11.168C10.5652 11.1497 11.1262 11.2682 11.6355 11.5134C12.1448 11.7586 12.5873 12.1233 12.9253 12.5763C13.0096 12.7024 13.0583 12.849 13.0661 13.0004C13.0739 13.1519 13.0406 13.3027 12.9697 13.4368C12.8988 13.5709 12.793 13.6834 12.6634 13.7622C12.5338 13.841 12.3853 13.8834 12.2336 13.8847Z" fill="#16B7F7"/>
</g>
<defs>
<clipPath id="clip0_582_7682">
<rect width="20" height="20" fill="white"/>
</clipPath>
</defs>
</svg>
