<svg width="16" height="20" viewBox="0 0 16 20" fill="none" xmlns="http://www.w3.org/2000/svg">
<path d="M14.5481 20H13.125C12.8713 20 12.6233 19.9249 12.4122 19.7843L7.91663 16.7871L3.42104 19.7836C3.20995 19.9243 2.96195 19.9994 2.70827 19.9994H1.28514C0.9443 19.9994 0.61742 19.864 0.376409 19.6229C0.135398 19.3819 0 19.0551 0 18.7142V1.60643C0 1.18038 0.169248 0.771774 0.470511 0.470511C0.771775 0.169248 1.18038 0 1.60643 0H14.2268C14.6529 0 15.0615 0.169248 15.3627 0.470511C15.664 0.771774 15.8333 1.18038 15.8333 1.60643V18.7149C15.8333 19.0557 15.6979 19.3826 15.4568 19.6236C15.2158 19.8646 14.889 20 14.5481 20Z" fill="#16B7F7"/>
<path d="M13.125 18.7149L7.91664 15.2426L2.70829 18.7149H1.28516V1.60644C1.28516 1.52123 1.31901 1.43951 1.37926 1.37926C1.43951 1.31901 1.52123 1.28516 1.60644 1.28516H14.2268C14.3121 1.28516 14.3938 1.31901 14.454 1.37926C14.5143 1.43951 14.5481 1.52123 14.5481 1.60644V18.7149H13.125Z" fill="#F7F9FA"/>
<path d="M7.91729 12.8325L11.9443 9.42684C12.1961 9.21385 12.4018 8.95176 12.5488 8.65658C12.6959 8.3614 12.7812 8.03933 12.7996 7.71006C12.8179 7.38078 12.769 7.05122 12.6557 6.74151C12.5424 6.43181 12.3671 6.14845 12.1406 5.90877C11.9178 5.67334 11.6501 5.48496 11.3532 5.35474C11.0564 5.22452 10.7365 5.15512 10.4124 5.15062C10.0883 5.14613 9.76654 5.20664 9.46621 5.32858C9.16588 5.45052 8.89304 5.63142 8.6638 5.86058L7.91729 6.60757L7.17063 5.86106C6.94146 5.6318 6.66864 5.45082 6.36832 5.32882C6.068 5.20682 5.74626 5.14628 5.42213 5.15077C5.09801 5.15526 4.77807 5.2247 4.48124 5.35498C4.18442 5.48526 3.91673 5.67373 3.694 5.90925C3.46748 6.14894 3.29221 6.43229 3.17891 6.742C3.06561 7.05171 3.01664 7.38127 3.03502 7.71054C3.05339 8.03981 3.13871 8.36188 3.28577 8.65706C3.43283 8.95224 3.63853 9.21433 3.8903 9.42733L7.91729 12.8325Z" fill="#16B7F7"/>
</svg>
