<svg width="29" height="29" viewBox="0 0 29 29" fill="none" xmlns="http://www.w3.org/2000/svg">
<g clip-path="url(#clip0_547_4613)">
<path d="M25.4288 8.03571H10.2503C10.0135 8.03571 9.78638 7.94165 9.61893 7.7742C9.45149 7.60676 9.35742 7.37966 9.35742 7.14286C9.35742 6.90606 9.45149 6.67896 9.61893 6.51151C9.78638 6.34407 10.0135 6.25 10.2503 6.25H25.4288C25.6656 6.25 25.8928 6.34407 26.0602 6.51151C26.2276 6.67896 26.3217 6.90606 26.3217 7.14286C26.3217 7.37966 26.2276 7.60676 26.0602 7.7742C25.8928 7.94165 25.6656 8.03571 25.4288 8.03571Z" fill="#16B7F7"/>
<path d="M6.67885 8.03571H4.00028C3.76348 8.03571 3.53638 7.94165 3.36893 7.7742C3.20149 7.60676 3.10742 7.37966 3.10742 7.14286C3.10742 6.90606 3.20149 6.67896 3.36893 6.51151C3.53638 6.34407 3.76348 6.25 4.00028 6.25H6.67885C6.91565 6.25 7.14275 6.34407 7.3102 6.51151C7.47764 6.67896 7.57171 6.90606 7.57171 7.14286C7.57171 7.37966 7.47764 7.60676 7.3102 7.7742C7.14275 7.94165 6.91565 8.03571 6.67885 8.03571Z" fill="#16B7F7"/>
<path d="M19.1788 15.1783H4.00028C3.76348 15.1783 3.53638 15.0842 3.36893 14.9168C3.20149 14.7493 3.10742 14.5222 3.10742 14.2854C3.10742 14.0486 3.20149 13.8215 3.36893 13.6541C3.53638 13.4866 3.76348 13.3926 4.00028 13.3926H19.1788C19.4156 13.3926 19.6428 13.4866 19.8102 13.6541C19.9776 13.8215 20.0717 14.0486 20.0717 14.2854C20.0717 14.5222 19.9776 14.7493 19.8102 14.9168C19.6428 15.0842 19.4156 15.1783 19.1788 15.1783Z" fill="#16B7F7"/>
<path d="M10.2503 22.3228H4.00028C3.76348 22.3228 3.53638 22.2288 3.36893 22.0613C3.20149 21.8939 3.10742 21.6668 3.10742 21.43C3.10742 21.1932 3.20149 20.9661 3.36893 20.7986C3.53638 20.6312 3.76348 20.5371 4.00028 20.5371H10.2503C10.4871 20.5371 10.7142 20.6312 10.8816 20.7986C11.0491 20.9661 11.1431 21.1932 11.1431 21.43C11.1431 21.6668 11.0491 21.8939 10.8816 22.0613C10.7142 22.2288 10.4871 22.3228 10.2503 22.3228Z" fill="#16B7F7"/>
<path d="M8.4647 9.82199C7.93493 9.82199 7.41706 9.66489 6.97657 9.37057C6.53608 9.07624 6.19276 8.65791 5.99003 8.16846C5.78729 7.67902 5.73425 7.14044 5.8376 6.62085C5.94096 6.10126 6.19606 5.62399 6.57067 5.24938C6.94527 4.87478 7.42255 4.61967 7.94214 4.51631C8.46173 4.41296 9.0003 4.466 9.48975 4.66874C9.97919 4.87147 10.3975 5.21479 10.6919 5.65528C10.9862 6.09577 11.1433 6.61364 11.1433 7.14342C11.1433 7.85382 10.8611 8.53512 10.3587 9.03745C9.85641 9.53978 9.17511 9.82199 8.4647 9.82199ZM8.4647 6.25056C8.28811 6.25056 8.11549 6.30292 7.96866 6.40103C7.82183 6.49914 7.70739 6.63859 7.63981 6.80173C7.57223 6.96488 7.55455 7.14441 7.589 7.3176C7.62346 7.4908 7.70849 7.64989 7.83336 7.77476C7.95823 7.89963 8.11732 7.98467 8.29052 8.01912C8.46371 8.05357 8.64324 8.03589 8.80639 7.96831C8.96954 7.90073 9.10898 7.78629 9.20709 7.63946C9.3052 7.49263 9.35756 7.32001 9.35756 7.14342C9.35756 6.90662 9.26349 6.67951 9.09605 6.51207C8.92861 6.34463 8.70151 6.25056 8.4647 6.25056Z" fill="#16B7F7"/>
<path d="M20.9647 16.9646C20.4349 16.9646 19.9171 16.8075 19.4766 16.5131C19.0361 16.2188 18.6928 15.8005 18.49 15.311C18.2873 14.8216 18.2342 14.283 18.3376 13.7634C18.441 13.2438 18.6961 12.7666 19.0707 12.392C19.4453 12.0174 19.9225 11.7622 20.4421 11.6589C20.9617 11.5555 21.5003 11.6086 21.9898 11.8113C22.4792 12.0141 22.8975 12.3574 23.1919 12.7979C23.4862 13.2383 23.6433 13.7562 23.6433 14.286C23.6433 14.9964 23.3611 15.6777 22.8587 16.18C22.3564 16.6824 21.6751 16.9646 20.9647 16.9646ZM20.9647 13.3931C20.7881 13.3931 20.6155 13.4455 20.4687 13.5436C20.3218 13.6417 20.2074 13.7812 20.1398 13.9443C20.0722 14.1075 20.0546 14.287 20.089 14.4602C20.1235 14.6334 20.2085 14.7925 20.3334 14.9173C20.4582 15.0422 20.6173 15.1272 20.7905 15.1617C20.9637 15.1961 21.1432 15.1785 21.3064 15.1109C21.4695 15.0433 21.609 14.9289 21.7071 14.782C21.8052 14.6352 21.8576 14.4626 21.8576 14.286C21.8576 14.0492 21.7635 13.8221 21.5961 13.6546C21.4286 13.4872 21.2015 13.3931 20.9647 13.3931Z" fill="#16B7F7"/>
<path d="M12.036 24.1071C11.5062 24.1071 10.9883 23.95 10.5479 23.6557C10.1074 23.3614 9.76405 22.9431 9.56132 22.4536C9.35858 21.9642 9.30554 21.4256 9.40889 20.906C9.51224 20.3864 9.76735 19.9091 10.142 19.5345C10.5166 19.1599 10.9938 18.9048 11.5134 18.8015C12.033 18.6981 12.5716 18.7512 13.061 18.9539C13.5505 19.1566 13.9688 19.5 14.2631 19.9404C14.5575 20.3809 14.7146 20.8988 14.7146 21.4286C14.7146 22.139 14.4324 22.8203 13.93 23.3226C13.4277 23.8249 12.7464 24.1071 12.036 24.1071ZM12.036 20.5357C11.8594 20.5357 11.6868 20.5881 11.5399 20.6862C11.3931 20.7843 11.2787 20.9237 11.2111 21.0869C11.1435 21.25 11.1258 21.4296 11.1603 21.6028C11.1947 21.776 11.2798 21.9351 11.4046 22.0599C11.5295 22.1848 11.6886 22.2698 11.8618 22.3043C12.035 22.3387 12.2145 22.321 12.3777 22.2535C12.5408 22.1859 12.6803 22.0714 12.7784 21.9246C12.8765 21.7778 12.9289 21.6052 12.9289 21.4286C12.9289 21.1918 12.8348 20.9647 12.6673 20.7972C12.4999 20.6298 12.2728 20.5357 12.036 20.5357Z" fill="#16B7F7"/>
<path d="M25.4289 15.1783H22.7503C22.5135 15.1783 22.2864 15.0842 22.1189 14.9168C21.9515 14.7493 21.8574 14.5222 21.8574 14.2854C21.8574 14.0486 21.9515 13.8215 22.1189 13.6541C22.2864 13.4866 22.5135 13.3926 22.7503 13.3926H25.4289C25.6657 13.3926 25.8928 13.4866 26.0602 13.6541C26.2276 13.8215 26.3217 14.0486 26.3217 14.2854C26.3217 14.5222 26.2276 14.7493 26.0602 14.9168C25.8928 15.0842 25.6657 15.1783 25.4289 15.1783Z" fill="#16B7F7"/>
<path d="M25.4287 22.3228H13.8216C13.5848 22.3228 13.3577 22.2288 13.1902 22.0613C13.0228 21.8939 12.9287 21.6668 12.9287 21.43C12.9287 21.1932 13.0228 20.9661 13.1902 20.7986C13.3577 20.6312 13.5848 20.5371 13.8216 20.5371H25.4287C25.6655 20.5371 25.8926 20.6312 26.0601 20.7986C26.2275 20.9661 26.3216 21.1932 26.3216 21.43C26.3216 21.6668 26.2275 21.8939 26.0601 22.0613C25.8926 22.2288 25.6655 22.3228 25.4287 22.3228Z" fill="#16B7F7"/>
</g>
<defs>
<clipPath id="clip0_547_4613">
<rect width="28.5714" height="28.5714" fill="white" transform="translate(0.428711)"/>
</clipPath>
</defs>
</svg>
