<svg width="25" height="17" viewBox="0 0 25 17" fill="none" xmlns="http://www.w3.org/2000/svg">
<g clip-path="url(#clip0_547_862)">
<path d="M23.1277 16.9024H1.8723C1.37574 16.9024 0.89951 16.6989 0.548385 16.3366C0.19726 15.9742 0 15.4828 0 14.9704V1.93206C0 1.41964 0.19726 0.928217 0.548385 0.565886C0.89951 0.203555 1.37574 0 1.8723 0H23.1277C23.6243 0 24.1005 0.203555 24.4516 0.565886C24.8027 0.928217 25 1.41964 25 1.93206V14.9704C25 15.4828 24.8027 15.9742 24.4516 16.3366C24.1005 16.6989 23.6243 16.9024 23.1277 16.9024Z" fill="#73AF00"/>
<path d="M5.17251 5.74576C5.21506 6.02658 5.37933 6.11542 5.52282 6.10316C5.60632 6.09455 5.68409 6.05546 5.74215 5.99294C5.8002 5.93041 5.83472 5.84854 5.83949 5.76209V4.7981C5.83949 4.77481 5.84846 4.75248 5.86442 4.73601C5.88038 4.71954 5.90202 4.71029 5.92459 4.71029C5.94716 4.71029 5.96881 4.71954 5.98477 4.73601C6.00073 4.75248 6.0097 4.77481 6.0097 4.7981V5.76619C6.00957 5.82355 6.0231 5.88006 6.0491 5.93076C6.07509 5.98147 6.11276 6.02481 6.15879 6.05698C6.20481 6.08915 6.25779 6.10916 6.31307 6.11525C6.36834 6.12135 6.42422 6.11335 6.47579 6.09194L6.5609 6.05721C6.56882 6.867 6.52132 7.57774 6.52033 7.58897C6.51734 7.63524 6.5322 7.68087 6.56167 7.71588C6.59115 7.75089 6.63285 7.77244 6.67767 7.77584H6.68955C6.73238 7.77571 6.77358 7.75893 6.80495 7.72883C6.83631 7.69874 6.85553 7.65755 6.85877 7.61348C6.85877 7.55629 6.91517 6.77714 6.89934 5.91425L6.9508 5.89281C6.97302 5.88374 6.99684 5.8796 7.0207 5.88065C7.04457 5.88171 7.06796 5.88793 7.08934 5.89893C7.18043 5.94596 7.28357 5.9622 7.38411 5.94533C7.48465 5.92847 7.57748 5.87937 7.64945 5.80499L7.68013 5.77333C7.74717 5.70435 7.79419 5.61741 7.81588 5.52232C7.83756 5.42722 7.83305 5.32776 7.80284 5.23518L7.65835 4.78689C7.69898 4.79913 7.74257 4.79531 7.78062 4.77618C7.81867 4.75705 7.84844 4.72398 7.86414 4.68342C7.87984 4.64286 7.88033 4.59773 7.86552 4.55682C7.8507 4.51591 7.82166 4.48215 7.78404 4.46214L7.44461 4.28651C7.41452 4.27103 7.38067 4.2651 7.34732 4.26946C7.31397 4.27381 7.28262 4.28825 7.25722 4.31097C7.23181 4.33369 7.21349 4.36366 7.20458 4.39711C7.19566 4.43055 7.19654 4.46597 7.20711 4.4989L7.48023 5.34546C7.4904 5.37634 7.492 5.40954 7.48483 5.44131C7.47766 5.47307 7.46201 5.50213 7.43966 5.52518L7.40898 5.55685C7.3873 5.57911 7.35938 5.59375 7.32918 5.5987C7.29898 5.60365 7.26804 5.59864 7.24075 5.58441C7.13112 5.52867 7.00567 5.51563 6.88746 5.54765C6.88025 5.03718 6.81042 4.5297 6.67965 4.03734C6.66409 3.99487 6.6332 3.96028 6.59345 3.94081C6.55371 3.92133 6.5082 3.91849 6.46648 3.93289C6.42475 3.94729 6.39005 3.97781 6.36965 4.01803C6.34925 4.05825 6.34473 4.10507 6.35705 4.14865C6.48646 4.64836 6.55298 5.16318 6.55496 5.68041L6.35111 5.76413V4.79606C6.35111 4.67974 6.30633 4.56819 6.22662 4.48594C6.14691 4.40369 6.0388 4.35748 5.92608 4.35748C5.81336 4.35748 5.70525 4.40369 5.62554 4.48594C5.54583 4.56819 5.50105 4.67974 5.50105 4.79606V5.64467L5.32787 4.76135C5.32414 4.73808 5.31589 4.71584 5.30365 4.69593C5.2914 4.67603 5.27539 4.65887 5.25658 4.64548C5.23777 4.63209 5.21654 4.62276 5.19416 4.61802C5.17177 4.61329 5.14869 4.61325 5.12629 4.61792C5.10389 4.62258 5.08263 4.63184 5.06378 4.64517C5.04492 4.65849 5.02887 4.6756 5.01656 4.69547C5.00425 4.71533 4.99594 4.73755 4.99213 4.7608C4.98832 4.78405 4.98909 4.80786 4.99438 4.8308L5.17251 5.74576Z" fill="#F5F5F5"/>
<path d="M5.50077 4.27077C5.54591 4.27077 5.5892 4.25227 5.62112 4.21933C5.65304 4.18639 5.67097 4.14171 5.67097 4.09513V3.91949C5.67276 3.89537 5.6697 3.87113 5.66198 3.84828C5.65426 3.82544 5.64205 3.80448 5.62612 3.78673C5.61019 3.76899 5.59087 3.75483 5.56938 3.74515C5.5479 3.73546 5.5247 3.73047 5.50126 3.73047C5.47781 3.73047 5.45463 3.73546 5.43314 3.74515C5.41166 3.75483 5.39234 3.76899 5.3764 3.78673C5.36047 3.80448 5.34826 3.82544 5.34054 3.84828C5.33282 3.87113 5.32976 3.89537 5.33155 3.91949V4.09513C5.33155 4.14154 5.34934 4.18607 5.38105 4.21898C5.41275 4.25189 5.4558 4.2705 5.50077 4.27077Z" fill="#F5F5F5"/>
<path d="M7.19929 4.09492H7.3695C7.39287 4.09676 7.41637 4.09361 7.4385 4.08564C7.46064 4.07768 7.48095 4.06508 7.49815 4.04864C7.51535 4.03219 7.52907 4.01225 7.53845 3.99008C7.54783 3.96791 7.55267 3.94398 7.55267 3.91979C7.55267 3.8956 7.54783 3.87166 7.53845 3.84949C7.52907 3.82731 7.51535 3.80739 7.49815 3.79094C7.48095 3.7745 7.46064 3.7619 7.4385 3.75394C7.41637 3.74597 7.39287 3.74281 7.3695 3.74465H7.19929C7.17591 3.74281 7.15242 3.74597 7.13028 3.75394C7.10815 3.7619 7.08784 3.7745 7.07064 3.79094C7.05344 3.80739 7.03972 3.82731 7.03034 3.84949C7.02095 3.87166 7.01611 3.8956 7.01611 3.91979C7.01611 3.94398 7.02095 3.96791 7.03034 3.99008C7.03972 4.01225 7.05344 4.03219 7.07064 4.04864C7.08784 4.06508 7.10815 4.07768 7.13028 4.08564C7.15242 4.09361 7.17591 4.09676 7.19929 4.09492Z" fill="#F5F5F5"/>
<path d="M6.09271 6.40095L5.24364 6.92686C5.22285 6.93782 5.20447 6.95308 5.18964 6.97169C5.1748 6.99029 5.16384 7.01186 5.15743 7.03503C5.15102 7.05819 5.14929 7.08248 5.15235 7.10636C5.15542 7.13024 5.16323 7.15322 5.17527 7.17386C5.18731 7.1945 5.20334 7.21236 5.22236 7.22634C5.24138 7.24032 5.26298 7.25011 5.28582 7.2551C5.30866 7.2601 5.33226 7.26017 5.35513 7.25535C5.37801 7.25053 5.39968 7.24092 5.4188 7.22709L6.26786 6.70119C6.28865 6.69022 6.30704 6.67496 6.32188 6.65636C6.33671 6.63775 6.34767 6.61618 6.35408 6.59302C6.3605 6.56985 6.36222 6.54557 6.35915 6.52168C6.35608 6.4978 6.34828 6.47482 6.33624 6.45418C6.32419 6.43354 6.30817 6.41568 6.28915 6.4017C6.27013 6.38773 6.24853 6.37795 6.22569 6.37295C6.20285 6.36796 6.17925 6.36787 6.15637 6.37269C6.1335 6.37751 6.11183 6.38712 6.09271 6.40095Z" fill="#F5F5F5"/>
<path d="M8.38271 6.70571C8.39611 6.76601 8.42286 6.82228 8.46088 6.87012C8.4964 6.91238 8.54138 6.94507 8.5919 6.96535C8.64242 6.98564 8.69697 6.9929 8.75083 6.98653C8.81978 6.98332 8.8872 6.96446 8.94826 6.93127C9.00933 6.89809 9.06255 6.85139 9.10412 6.79454C9.11552 6.80251 9.12742 6.80968 9.13975 6.816C9.18638 6.83905 9.23771 6.85016 9.2894 6.84838C9.34108 6.8466 9.39158 6.83198 9.43662 6.80578C9.53654 6.74189 9.61766 6.65107 9.6712 6.54308C9.72474 6.4351 9.74867 6.31408 9.74042 6.19308C9.73714 6.14722 9.71695 6.10439 9.68399 6.07343C9.65104 6.04247 9.60784 6.02571 9.56329 6.02662C9.51848 6.02875 9.47631 6.04904 9.44592 6.08308C9.41553 6.11711 9.39939 6.16215 9.401 6.2084C9.401 6.2084 9.401 6.41876 9.28126 6.49637C9.25502 6.4508 9.23723 6.40058 9.22881 6.34829C9.22103 6.30561 9.19821 6.26741 9.16475 6.24108C9.13128 6.21474 9.08955 6.20214 9.0476 6.20569C9.00565 6.20924 8.96647 6.2287 8.93761 6.26032C8.90876 6.29194 8.89228 6.33347 8.89136 6.37689C8.89136 6.40242 8.88542 6.62708 8.71719 6.64648C8.69689 6.57133 8.69689 6.49187 8.71719 6.41671C8.72511 6.38227 8.72276 6.34615 8.71045 6.31311C8.69814 6.28007 8.67644 6.25163 8.64819 6.23154C8.61995 6.21145 8.58647 6.20064 8.55216 6.20052C8.51786 6.2004 8.48432 6.21098 8.45594 6.23087L8.35698 6.29723C8.31245 5.27606 8.20854 4.0956 8.20656 4.08028C8.20583 4.05635 8.20037 4.03283 8.19051 4.01116C8.18066 3.98949 8.16662 3.97013 8.14924 3.95427C8.13187 3.9384 8.11154 3.92638 8.0895 3.91891C8.06746 3.91145 8.04417 3.90871 8.02107 3.91087C7.99797 3.91303 7.97554 3.92004 7.95516 3.93147C7.93478 3.9429 7.91687 3.95852 7.90255 3.97735C7.88823 3.99617 7.87779 4.01782 7.87187 4.04097C7.86595 4.06411 7.86467 4.08825 7.86812 4.11193C7.86812 4.12826 7.98984 5.49869 8.02646 6.54539L8.00073 6.57091C7.97389 6.48829 7.92449 6.41543 7.85849 6.36109C7.79248 6.30674 7.71267 6.27322 7.62864 6.26456C7.50292 6.25995 7.37881 6.29488 7.27277 6.36473C7.16673 6.43458 7.08377 6.53606 7.03489 6.65568C6.99246 6.74445 6.98221 6.84595 7.00598 6.94184C7.02976 7.03773 7.08599 7.12168 7.16452 7.17851C7.24139 7.22282 7.32721 7.24801 7.41517 7.25209C7.50312 7.25617 7.59079 7.23901 7.6712 7.20199C7.61692 7.40006 7.52285 7.58412 7.3951 7.7422C7.3307 7.82838 7.24855 7.89873 7.1546 7.94818C7.06065 7.99762 6.95723 8.02493 6.85181 8.02813C6.79016 8.02876 6.72904 8.0162 6.67233 7.99124C6.61561 7.96629 6.56452 7.92947 6.52228 7.88312C6.39589 7.70083 6.33247 7.48004 6.34217 7.25612C6.34433 7.20986 6.3287 7.16459 6.29868 7.13016C6.26865 7.09574 6.22667 7.07494 6.18186 7.07231C6.15946 7.0705 6.13694 7.0734 6.11566 7.08083C6.09438 7.08825 6.07477 7.10005 6.05803 7.11551C6.04129 7.13098 6.02776 7.14978 6.01826 7.17078C6.00876 7.19179 6.00348 7.21457 6.00274 7.23774C5.98822 7.55483 6.08287 7.86701 6.26994 8.11902C6.34233 8.20046 6.43023 8.26562 6.52814 8.31042C6.62604 8.35523 6.73185 8.37871 6.83895 8.3794H6.87359C7.02458 8.37417 7.17263 8.3349 7.30734 8.26433C7.44205 8.19377 7.56017 8.09362 7.65338 7.97094C7.86081 7.71411 7.9954 7.40311 8.04229 7.07231C8.03482 7.38222 7.95718 7.68602 7.8156 7.95944C7.67401 8.23286 7.47239 8.46832 7.22686 8.64696C7.10317 8.73434 6.95926 8.78632 6.80976 8.79762C6.66026 8.80892 6.51053 8.77914 6.37582 8.7113C6.24945 8.63971 6.14646 8.53107 6.07988 8.39912C6.0133 8.26716 5.98612 8.1178 6.00175 7.96991C6.00542 7.92476 5.99204 7.87989 5.9644 7.84468C5.93676 7.80947 5.897 7.78664 5.85343 7.78097C5.80987 7.7753 5.76587 7.78722 5.73062 7.81425C5.69537 7.84128 5.67161 7.88132 5.66431 7.926C5.63959 8.14631 5.67993 8.36919 5.78005 8.56544C5.88017 8.76168 6.0354 8.92216 6.22541 9.02582C6.38513 9.10854 6.56128 9.15188 6.73999 9.15244C6.97617 9.15023 7.20698 9.07946 7.40599 8.9482C7.70102 8.73814 7.94337 8.45864 8.11303 8.13281C8.2827 7.80698 8.3748 7.44417 8.38172 7.07435C8.38865 6.96304 8.38667 6.83948 8.38271 6.70571ZM7.35848 6.88646C7.32781 6.86604 7.35156 6.79965 7.35848 6.78434C7.37978 6.7365 7.41298 6.69532 7.45469 6.66501C7.49641 6.6347 7.54515 6.61632 7.59598 6.61175H7.60489C7.62666 6.61175 7.68406 6.61993 7.7088 6.75166C7.7088 6.76596 7.7088 6.78025 7.71572 6.79454C7.52869 6.91606 7.40202 6.92016 7.35848 6.89054V6.88646Z" fill="#F5F5F5"/>
<path d="M5.58612 8.50295C5.54725 8.47948 5.50096 8.47286 5.45737 8.48453C5.41379 8.49621 5.37646 8.52523 5.35356 8.56525C5.34497 8.57989 5.33538 8.59388 5.32486 8.60712L5.31893 8.59281C5.27122 8.39719 5.27292 8.19222 5.32388 7.99748C5.33354 7.95322 5.32624 7.90683 5.30351 7.86801C5.28077 7.82918 5.24437 7.80094 5.20191 7.78919C5.15945 7.77745 5.11423 7.78311 5.07572 7.80499C5.03722 7.82688 5.00841 7.86328 4.99533 7.90659C4.9257 8.17163 4.92741 8.45123 5.00028 8.71535C5.07845 8.92979 5.1982 8.98392 5.28429 8.99107H5.30705C5.37892 8.98089 5.4473 8.95278 5.50628 8.90919C5.56525 8.86559 5.61303 8.80783 5.64549 8.74089C5.66796 8.70115 5.67433 8.65386 5.66322 8.60931C5.6521 8.56476 5.62439 8.52654 5.58612 8.50295Z" fill="#F5F5F5"/>
<path d="M8.72091 5.32283C8.75901 5.32285 8.796 5.30953 8.82581 5.28504L9.68279 4.59064C9.69341 4.5807 9.70273 4.56938 9.7105 4.55695C9.78827 4.50932 9.84931 4.43735 9.88477 4.3515C9.92023 4.26565 9.92826 4.17038 9.90771 4.0795C9.88715 3.98863 9.83906 3.90688 9.77043 3.8461C9.7018 3.78533 9.61619 3.74871 9.52602 3.74153C9.43586 3.73436 9.34582 3.75701 9.26898 3.80621C9.19213 3.85542 9.13248 3.9286 9.09867 4.01515C9.06485 4.1017 9.05863 4.19713 9.08092 4.28757C9.10321 4.37801 9.15286 4.45877 9.22264 4.51813L8.61601 5.00932C8.58829 5.0319 8.56806 5.06282 8.55813 5.09779C8.5482 5.13277 8.54907 5.17005 8.56059 5.2045C8.57212 5.23894 8.59373 5.26884 8.62246 5.29004C8.65118 5.31124 8.6856 5.3227 8.72091 5.32283ZM9.49279 4.09741C9.50962 4.09741 9.52607 4.10256 9.54007 4.11221C9.55406 4.12186 9.56497 4.13559 9.57141 4.15163C9.57786 4.16768 9.57955 4.18533 9.57626 4.20237C9.57298 4.2194 9.56486 4.23505 9.55296 4.24734C9.54106 4.25962 9.52589 4.26797 9.50938 4.27136C9.49288 4.27475 9.47577 4.27301 9.46022 4.26636C9.44467 4.25971 9.43138 4.24847 9.42203 4.23403C9.41268 4.21959 9.40769 4.2026 9.40769 4.18523C9.40742 4.17352 9.40943 4.16189 9.41359 4.15099C9.41775 4.1401 9.42396 4.13018 9.43189 4.12181C9.43982 4.11344 9.44929 4.10678 9.45975 4.10224C9.47021 4.0977 9.48144 4.09536 9.49279 4.09537V4.09741Z" fill="#F5F5F5"/>
<path d="M9.28912 5.15754C9.26794 5.1502 9.24557 5.14724 9.22328 5.14887C9.201 5.1505 9.17925 5.15668 9.15929 5.16703C9.13932 5.17737 9.12154 5.1917 9.10697 5.20917C9.0924 5.22665 9.08132 5.24692 9.07438 5.26884C9.04193 5.35367 9.03098 5.44565 9.04258 5.53607C9.05418 5.62648 9.08795 5.71235 9.14069 5.78555C9.17403 5.81965 9.21381 5.84633 9.25756 5.86389C9.30131 5.88146 9.3481 5.88955 9.39501 5.88767C9.47502 5.88577 9.55421 5.87059 9.62955 5.84273C9.65154 5.83611 9.67201 5.82499 9.68973 5.81001C9.70746 5.79503 9.72207 5.77651 9.73269 5.75557C9.74332 5.73462 9.74973 5.71168 9.75155 5.68811C9.75338 5.66455 9.75057 5.64085 9.74331 5.61843C9.73604 5.59601 9.72447 5.57533 9.70927 5.55763C9.69408 5.53994 9.67559 5.52559 9.6549 5.51545C9.6342 5.50531 9.61173 5.49959 9.58884 5.49862C9.56595 5.49766 9.5431 5.50148 9.52167 5.50984C9.47684 5.52572 9.43033 5.53601 9.38313 5.54048C9.37509 5.48667 9.37985 5.43165 9.39699 5.38015C9.40426 5.35824 9.40722 5.33505 9.40572 5.31194C9.40422 5.28883 9.39827 5.26625 9.38823 5.24553C9.37819 5.22481 9.36427 5.20636 9.34725 5.19126C9.33024 5.17615 9.31047 5.16469 9.28912 5.15754Z" fill="#F5F5F5"/>
<path d="M11.2369 4.43124C11.2802 4.44419 11.3267 4.43888 11.3662 4.41648C11.4058 4.39408 11.435 4.35642 11.4477 4.31175L11.5466 3.96151C11.5598 3.91682 11.5551 3.86858 11.5338 3.82741C11.5125 3.78623 11.4761 3.75548 11.4328 3.74194C11.3895 3.7284 11.3428 3.73316 11.3029 3.75519C11.263 3.77721 11.2332 3.8147 11.2201 3.85938L11.1211 4.20965C11.1143 4.23204 11.1119 4.25561 11.1141 4.27897C11.1162 4.30233 11.1229 4.325 11.1337 4.34566C11.1445 4.36632 11.1592 4.38453 11.1769 4.39923C11.1946 4.41393 11.215 4.42481 11.2369 4.43124Z" fill="#F5F5F5"/>
<path d="M10.2463 4.41163C10.2856 4.43505 10.3324 4.44139 10.3763 4.42923C10.398 4.42321 10.4184 4.41282 10.4362 4.39868C10.4541 4.38453 10.469 4.36691 10.4803 4.34679C10.4915 4.32668 10.4988 4.30446 10.5017 4.28144C10.5047 4.25842 10.5032 4.23503 10.4974 4.2126C10.4915 4.19017 10.4814 4.16915 10.4677 4.15074C10.454 4.13233 10.437 4.11689 10.4175 4.10529C10.3828 4.08486 10.3878 4.02664 10.3888 4.01541C10.3902 3.99035 10.3982 3.96616 10.412 3.94546C10.4258 3.92477 10.4448 3.90836 10.4669 3.89799C10.4899 3.89279 10.5115 3.88273 10.5305 3.86847C10.5495 3.85421 10.5655 3.83605 10.5774 3.81512C10.5892 3.7942 10.5968 3.77097 10.5995 3.74689C10.6022 3.72281 10.6001 3.6984 10.5933 3.67521C10.5864 3.65202 10.575 3.63053 10.5597 3.61212C10.5444 3.59371 10.5256 3.57878 10.5044 3.56824C10.4832 3.55771 10.4602 3.5518 10.4367 3.5509C10.4132 3.55001 10.3898 3.55414 10.368 3.56304C10.283 3.59266 10.2081 3.64695 10.1523 3.7194C10.0965 3.79186 10.0621 3.87939 10.0533 3.9715C10.0393 4.05635 10.0502 4.14359 10.0846 4.22201C10.119 4.30043 10.1753 4.36645 10.2463 4.41163Z" fill="#F5F5F5"/>
<path d="M8.89808 7.25195C8.8565 7.2531 8.81677 7.26993 8.78638 7.29924C8.756 7.32856 8.73707 7.36834 8.73317 7.41107C8.72927 7.45381 8.74068 7.49654 8.76523 7.5312C8.78978 7.56585 8.82577 7.59003 8.86641 7.59916C8.89297 7.6545 8.90394 7.7164 8.89808 7.77786C8.90135 7.82199 8.92065 7.86323 8.95212 7.89332C8.98359 7.9234 9.0249 7.94013 9.0678 7.94013C9.1107 7.94013 9.15201 7.9234 9.18348 7.89332C9.21495 7.86323 9.23424 7.82199 9.23751 7.77786C9.23751 7.25808 8.91193 7.25195 8.89808 7.25195Z" fill="#F5F5F5"/>
<path d="M11.7809 6.52648C11.8021 6.52998 11.8237 6.53169 11.8452 6.53159C11.9219 6.52667 11.997 6.50609 12.0659 6.47104C12.1349 6.43598 12.1964 6.38714 12.247 6.32735C12.2765 6.29398 12.2925 6.25012 12.2915 6.20491C12.2905 6.1597 12.2727 6.11663 12.2417 6.08465C12.2107 6.05268 12.169 6.03426 12.1252 6.03325C12.0813 6.03223 12.0388 6.04869 12.0065 6.0792C11.9075 6.18132 11.8501 6.18132 11.8363 6.18132C11.8036 6.18132 11.7749 6.13332 11.768 6.12107C11.7461 6.08226 11.7107 6.05357 11.6689 6.0409C11.6272 6.02822 11.5823 6.03254 11.5436 6.05293C11.5048 6.07332 11.4751 6.10825 11.4605 6.15055C11.4459 6.19285 11.4476 6.23931 11.4652 6.28038C11.4967 6.34309 11.5414 6.39773 11.596 6.44031C11.6507 6.48289 11.7138 6.51233 11.7809 6.52648Z" fill="#F5F5F5"/>
<path d="M14.6694 5.29384V5.28566C14.6527 5.24474 14.6216 5.21186 14.5824 5.19363C14.5432 5.17541 14.4987 5.17318 14.4579 5.18742C14.4172 5.20165 14.3832 5.23129 14.3627 5.27036C14.3423 5.30943 14.3369 5.35502 14.3478 5.39799C14.3663 5.46469 14.4016 5.52516 14.4501 5.57322C14.4986 5.62129 14.5586 5.65525 14.6239 5.67167H14.6615C14.7309 5.66427 14.7973 5.63897 14.8547 5.59811C14.9121 5.55724 14.9587 5.50211 14.99 5.43782C15.004 5.4187 15.0141 5.39683 15.0196 5.37354C15.0251 5.35026 15.0259 5.32606 15.022 5.30243C15.0181 5.2788 15.0096 5.25625 14.9969 5.23616C14.9843 5.21606 14.9678 5.19886 14.9484 5.18559C14.9291 5.17233 14.9073 5.1633 14.8844 5.15904C14.8616 5.15479 14.8381 5.1554 14.8155 5.16085C14.7929 5.1663 14.7716 5.17649 14.753 5.19075C14.7343 5.20502 14.7186 5.22307 14.707 5.24381C14.6954 5.26125 14.6829 5.27796 14.6694 5.29384Z" fill="#F5F5F5"/>
<path d="M14.3358 8.47957C14.3358 7.73207 14.3042 7.03053 14.2596 6.41579C14.4889 6.81543 14.6874 7.233 14.8534 7.66467C14.8656 7.69802 14.8875 7.72674 14.9159 7.74699C14.9444 7.76724 14.9781 7.77807 15.0127 7.77803C15.033 7.77792 15.0531 7.77412 15.0721 7.76679C15.1141 7.7503 15.1481 7.7173 15.1667 7.67502C15.1852 7.63273 15.1868 7.58458 15.171 7.54111C14.9024 6.8702 14.5734 6.22678 14.1884 5.61927C14.0954 4.67469 13.9905 4.07526 13.9905 4.06505C13.9804 4.02139 13.9544 3.98339 13.918 3.95884C13.8816 3.93429 13.8375 3.92505 13.7947 3.93302C13.7519 3.94099 13.7137 3.96557 13.6879 4.0017C13.6621 4.03784 13.6507 4.0828 13.656 4.12734C13.656 4.13449 13.7104 4.4439 13.7747 4.96368C13.6441 4.75945 13.5234 4.5838 13.4214 4.43471H13.4294C13.4508 4.44307 13.4736 4.44688 13.4965 4.44591C13.5194 4.44495 13.5419 4.43922 13.5626 4.42908C13.5833 4.41894 13.6018 4.4046 13.617 4.3869C13.6322 4.36921 13.6437 4.34854 13.651 4.32612C13.6583 4.3037 13.6611 4.28 13.6592 4.25644C13.6574 4.23287 13.651 4.20993 13.6404 4.18898C13.6298 4.16804 13.6151 4.14952 13.5974 4.13454C13.5797 4.11956 13.5592 4.10842 13.5372 4.1018L13.0276 3.92616C12.9932 3.91408 12.956 3.9137 12.9215 3.9251C12.8869 3.9365 12.8568 3.95907 12.8356 3.98947C12.8244 4.00593 12.8161 4.02424 12.8109 4.0436C12.7641 3.99876 12.707 3.96712 12.6449 3.95173C12.5828 3.93635 12.518 3.93775 12.4566 3.95579C12.4009 3.98304 12.3551 4.02797 12.3259 4.08401C12.2967 4.14005 12.2856 4.20425 12.2943 4.26724C12.307 4.43809 12.3464 4.60571 12.4111 4.76353C12.51 5.05559 12.5734 5.27411 12.4675 5.37623C12.4463 5.40151 12.4191 5.42066 12.3885 5.43176C12.358 5.44286 12.3252 5.44554 12.2933 5.43954C12.1884 5.41196 12.0845 5.26798 12.0152 5.05455C12.0113 5.04599 12.0067 5.03779 12.0014 5.03004C12.0358 4.70595 12.0184 4.37823 11.9499 4.05993C11.9465 4.03641 11.9385 4.01385 11.9264 3.9936C11.9143 3.97336 11.8984 3.95587 11.8796 3.94218C11.8607 3.92849 11.8394 3.91889 11.8168 3.91396C11.7943 3.90904 11.771 3.90889 11.7484 3.91353C11.7258 3.91816 11.7043 3.92749 11.6853 3.94094C11.6663 3.95439 11.6501 3.97169 11.6378 3.99178C11.6255 4.01187 11.6172 4.03432 11.6135 4.0578C11.6099 4.08128 11.6109 4.10528 11.6164 4.12835C11.7452 4.54112 11.7132 4.98937 11.5274 5.37827C11.4972 5.41748 11.4584 5.44869 11.4141 5.4693C11.3699 5.4899 11.3215 5.4993 11.2731 5.49672C11.2575 5.49728 11.2421 5.49407 11.228 5.48733C11.2139 5.48058 11.2015 5.47051 11.1919 5.45792C11.0667 5.14516 11.0353 4.8008 11.1018 4.46943C11.1059 4.44426 11.1045 4.41848 11.0979 4.3939C11.0913 4.36932 11.0796 4.34652 11.0636 4.32709C11.0476 4.30765 11.0277 4.29204 11.0052 4.28135C10.9828 4.27066 10.9583 4.26515 10.9336 4.26519C10.6367 4.26519 10.5309 4.60831 10.4329 4.91058C10.3903 5.04333 10.3102 5.29147 10.2548 5.31904C10.1558 5.31904 10.0855 5.00758 10.0846 4.79314C10.0843 4.74673 10.0662 4.70232 10.0343 4.66961C10.0025 4.63689 9.95932 4.61851 9.91435 4.61851C9.89204 4.61851 9.86995 4.62307 9.84935 4.63191C9.82876 4.64075 9.81006 4.6537 9.79433 4.67003C9.7786 4.68635 9.76616 4.70572 9.75771 4.72702C9.74927 4.74833 9.74499 4.77115 9.74512 4.79417C9.74512 5.20264 9.87871 5.67033 10.2548 5.67033C10.5348 5.67033 10.6506 5.35479 10.7436 5.05762C10.7452 5.28066 10.8125 5.49792 10.9366 5.68054C10.978 5.73143 11.0298 5.7722 11.0884 5.79993C11.1469 5.82765 11.2106 5.84163 11.275 5.84086C11.3737 5.84311 11.4716 5.82201 11.5611 5.77917C11.6507 5.73634 11.7295 5.6729 11.7916 5.59373C11.815 5.56302 11.8361 5.5306 11.8549 5.49672C11.9374 5.6301 12.064 5.72807 12.2112 5.77244C12.2503 5.78257 12.2906 5.78771 12.3309 5.78776C12.4701 5.78463 12.6027 5.72608 12.701 5.62437C12.7218 5.60267 12.7407 5.57909 12.7574 5.55391C12.7983 5.56637 12.8406 5.57291 12.8831 5.57332C13.0081 5.56972 13.1299 5.53124 13.2354 5.462C13.2707 5.43586 13.295 5.39677 13.3033 5.35273C13.3116 5.30869 13.3032 5.26305 13.2799 5.22518C13.2566 5.1873 13.2202 5.16004 13.1781 5.14901C13.1359 5.13798 13.0913 5.14402 13.0533 5.16587C12.9953 5.20144 12.9288 5.21948 12.8613 5.21795C12.8493 5.01999 12.8059 4.82542 12.7327 4.64201C12.6974 4.54632 12.668 4.44843 12.6446 4.34893L12.6842 4.38569C12.7161 4.41855 12.7594 4.43701 12.8044 4.43701C12.8495 4.43701 12.8928 4.41855 12.9247 4.38569C12.9346 4.37399 12.9429 4.36093 12.9494 4.34689C13.1256 4.59708 13.4877 5.12298 13.8608 5.72956C13.9321 6.47502 13.9944 7.42573 13.9944 8.46936C13.9977 8.5135 14.017 8.55474 14.0485 8.58483C14.0799 8.61491 14.1212 8.63162 14.1641 8.63162C14.207 8.63162 14.2483 8.61491 14.2798 8.58483C14.3113 8.55474 14.3306 8.5135 14.3339 8.46936L14.3358 8.47957Z" fill="#F5F5F5"/>
<path d="M14.5051 4.62244C14.5083 4.66658 14.5276 4.70782 14.5591 4.7379C14.5905 4.76799 14.6319 4.78471 14.6748 4.78471C14.7177 4.78471 14.759 4.76799 14.7904 4.7379C14.8219 4.70782 14.8412 4.66658 14.8445 4.62244C14.8173 4.41097 14.7536 4.20624 14.6565 4.01791C14.6473 3.99599 14.6338 3.97623 14.6169 3.95985C14.6001 3.94348 14.5802 3.93083 14.5584 3.92268C14.5367 3.91452 14.5135 3.91102 14.4904 3.91241C14.4673 3.9138 14.4447 3.92005 14.424 3.93076C14.4033 3.94148 14.3849 3.95643 14.37 3.97472C14.3551 3.99301 14.344 4.01424 14.3373 4.03712C14.3306 4.06 14.3286 4.08403 14.3312 4.10777C14.3338 4.13151 14.3411 4.15446 14.3527 4.17518C14.4253 4.31538 14.4767 4.4662 14.5051 4.62244Z" fill="#F5F5F5"/>
<path d="M13.7314 8.49894C13.7116 8.48857 13.6899 8.48235 13.6677 8.48065C13.6455 8.47894 13.6232 8.48177 13.602 8.48898C13.5809 8.49619 13.5613 8.50764 13.5445 8.52267C13.5276 8.5377 13.5138 8.55599 13.5038 8.57654C13.4847 8.61348 13.461 8.64779 13.4336 8.67866C13.4306 8.5686 13.4457 8.45883 13.4781 8.35393C13.4892 8.31647 13.4878 8.27625 13.4742 8.23967C13.4606 8.2031 13.4356 8.17228 13.403 8.15209C13.3705 8.1319 13.3324 8.1235 13.2947 8.12825C13.257 8.133 13.2219 8.15061 13.1951 8.17828L12.8557 8.52855C12.8387 8.54455 12.825 8.56395 12.8155 8.58556C12.806 8.60716 12.8009 8.63054 12.8003 8.65426C12.7998 8.67798 12.8039 8.70156 12.8125 8.72358C12.8211 8.74561 12.8339 8.76561 12.8501 8.78239C12.8664 8.79917 12.8858 8.81237 12.9071 8.8212C12.9285 8.83004 12.9513 8.83433 12.9743 8.83379C12.9973 8.83326 13.0199 8.82793 13.0409 8.81812C13.0618 8.80831 13.0806 8.79422 13.0961 8.7767L13.105 8.76751C13.1175 8.83659 13.1491 8.90044 13.1961 8.95131C13.2244 8.98269 13.2585 9.00789 13.2964 9.02543C13.3343 9.04297 13.3752 9.0525 13.4167 9.05344C13.4322 9.05466 13.4478 9.05466 13.4633 9.05344C13.5394 9.02923 13.6097 8.98832 13.6691 8.9335C13.7285 8.87869 13.7758 8.81126 13.8077 8.73585C13.818 8.71518 13.8242 8.69259 13.8259 8.6694C13.8277 8.64622 13.8249 8.62293 13.8178 8.60086C13.8107 8.57879 13.7994 8.5584 13.7846 8.5409C13.7697 8.5234 13.7517 8.50914 13.7314 8.49894Z" fill="#F5F5F5"/>
<path d="M13.6662 7.08616H12.4708C12.4813 7.04259 12.4922 7.00106 12.5034 6.96158C12.9814 6.85946 13.2644 6.70015 13.3485 6.48775C13.3728 6.42227 13.3797 6.35126 13.3684 6.28212C13.3571 6.21297 13.328 6.14821 13.2842 6.0946C13.2386 6.02296 13.1735 5.9668 13.0971 5.93319C13.0207 5.89958 12.9364 5.89002 12.8547 5.90569C12.6133 5.95573 12.3985 6.2243 12.2441 6.65421C11.8841 6.70329 11.5445 6.85498 11.2635 7.09228C11.2332 6.68135 11.1127 6.28292 10.9112 5.92713C10.885 5.89145 10.8467 5.86741 10.8039 5.85991C10.7612 5.85241 10.7173 5.86201 10.6812 5.88676C10.6451 5.91151 10.6195 5.94955 10.6096 5.9931C10.5998 6.03666 10.6064 6.08246 10.6281 6.12116C10.8441 6.51926 10.9518 6.97016 10.9399 7.42621C10.9524 7.74542 10.8579 8.05931 10.6722 8.31492C10.4865 8.57054 10.221 8.75222 9.92058 8.8293C9.72959 8.8293 9.64646 8.59544 9.60984 8.39734C9.97038 8.18526 10.256 7.86011 10.4253 7.4691C10.4977 7.14839 10.4577 6.81159 10.3125 6.51838L10.2996 6.48775L10.3105 6.49796C10.3428 6.52847 10.3853 6.54494 10.4291 6.54392C10.4729 6.54291 10.5147 6.52449 10.5457 6.49252C10.5767 6.46054 10.5945 6.41747 10.5955 6.37226C10.5965 6.32705 10.5805 6.28319 10.5509 6.24982C10.452 6.1477 10.2541 5.98636 10.0839 6.06193C10.0281 6.08919 9.98234 6.13412 9.95314 6.19015C9.92394 6.24619 9.91288 6.31039 9.92157 6.37338C9.9296 6.47181 9.95651 6.56762 10.0007 6.65522C10.1168 6.87797 10.1519 7.13621 10.0997 7.38332C9.97849 7.64607 9.78508 7.86626 9.54354 8.01645C9.52804 7.99659 9.50846 7.98051 9.48622 7.96938C9.46398 7.95826 9.43962 7.95236 9.4149 7.95212C9.36993 7.95239 9.32688 7.971 9.29518 8.00391C9.26347 8.03682 9.24568 8.08135 9.24568 8.12776C9.24568 8.15941 9.24568 8.19312 9.24568 8.22988C8.89701 8.45987 8.53328 8.66459 8.15712 8.84257C8.12207 8.85937 8.09361 8.88797 8.0764 8.92368C8.05919 8.95938 8.05427 9.00007 8.06245 9.03904C8.07062 9.07802 8.09141 9.11296 8.12138 9.13813C8.15136 9.1633 8.18874 9.17719 8.22738 9.17752C8.2516 9.17769 8.27556 9.17247 8.29764 9.1622C8.64611 8.99601 8.98481 8.80882 9.31198 8.60158C9.33499 8.75561 9.40842 8.89685 9.52004 9.00182C9.63167 9.10679 9.77477 9.16915 9.92552 9.17853C10.1703 9.14763 10.4032 9.05258 10.6023 8.90242C10.8013 8.75227 10.9598 8.55202 11.0626 8.32075C11.095 8.38037 11.1331 8.43647 11.1764 8.48823C11.5319 8.82016 11.9952 9.00236 12.4747 8.99881C12.5178 8.99735 12.5588 8.97904 12.5893 8.94759C12.6199 8.91615 12.6377 8.8739 12.6392 8.82941C12.6407 8.78491 12.6258 8.74149 12.5975 8.70791C12.5691 8.67434 12.5295 8.65311 12.4866 8.64855C12.407 8.63952 12.3326 8.60363 12.2748 8.54644C12.251 8.51402 12.2338 8.47693 12.2242 8.43743C12.2147 8.39793 12.2131 8.35684 12.2194 8.31667C12.2372 8.10018 12.9121 7.93884 13.5059 7.92965C13.5404 7.92904 13.574 7.91757 13.6021 7.89677C13.6302 7.87597 13.6516 7.84684 13.6632 7.81324L13.8334 7.32001C13.8424 7.29355 13.8452 7.26525 13.8414 7.23747C13.8376 7.2097 13.8275 7.18325 13.8118 7.16036C13.7961 7.13746 13.7753 7.11879 13.7512 7.10588C13.7271 7.09297 13.7003 7.0862 13.6731 7.08616H13.6662ZM12.92 6.2488H12.9329C12.9487 6.2488 12.9744 6.25696 13.0091 6.30496C13.016 6.31415 13.0358 6.34479 13.0309 6.35806C13.0111 6.4081 12.8943 6.48979 12.6499 6.56229C12.7577 6.34581 12.8666 6.26106 12.92 6.2488ZM11.8938 8.5546C11.7143 8.50156 11.5519 8.39962 11.4238 8.25948C11.3567 8.17496 11.3085 8.07627 11.2825 7.97039C11.2565 7.86452 11.2534 7.75404 11.2733 7.64678C11.2832 7.62097 11.2952 7.59604 11.309 7.57223C11.5485 7.54977 12.1877 7.64679 12.2313 7.8357C12.1378 7.87275 12.0554 7.93452 11.9923 8.01482C11.9293 8.09512 11.8878 8.19112 11.8721 8.29319C11.8641 8.38097 11.8715 8.4695 11.8938 8.5546Z" fill="#F5F5F5"/>
<path d="M15.5166 4.56439L15.3464 4.03849C15.3328 3.99792 15.3054 3.96386 15.2693 3.94272C15.2331 3.92159 15.1907 3.91484 15.15 3.92376C15.1093 3.93268 15.0732 3.95665 15.0485 3.99114C15.0238 4.02563 15.0122 4.06826 15.0158 4.11099C15.1326 5.32108 15.3553 7.6851 15.3553 7.95061C15.3553 8.19365 14.9367 8.67155 14.2598 9.02079C14.2221 9.04312 14.1941 9.07951 14.1815 9.12249C14.169 9.16546 14.1729 9.21176 14.1924 9.25188C14.2119 9.292 14.2455 9.3229 14.2864 9.33822C14.3273 9.35354 14.3723 9.35214 14.4122 9.33429C15.0307 9.01569 15.6987 8.44588 15.6987 7.95061C15.6987 7.69123 15.5255 5.82759 15.4255 4.78497C15.465 4.76695 15.4963 4.73415 15.5132 4.69321C15.5301 4.65226 15.5313 4.60622 15.5166 4.56439Z" fill="#F5F5F5"/>
<path d="M16.9337 6.14914C16.9601 6.17618 16.9943 6.19357 17.0312 6.19862C17.068 6.20368 17.1055 6.19613 17.1378 6.17714C17.1701 6.15814 17.1955 6.12875 17.2101 6.09345C17.2247 6.05815 17.2277 6.01888 17.2187 5.98166C17.1891 5.87104 17.1807 5.75555 17.1939 5.64162C17.236 5.64314 17.2771 5.6287 17.3096 5.60104C17.342 5.57339 17.3635 5.53442 17.3701 5.4915C17.3763 5.44548 17.3645 5.39879 17.3375 5.36166C17.3104 5.32453 17.2702 5.29998 17.2256 5.2934C17.1743 5.28455 17.1218 5.28929 17.0728 5.30715C17.0238 5.32502 16.98 5.35542 16.9455 5.39552C16.9013 5.44926 16.8716 5.51406 16.8594 5.58341L16.6615 5.37917C16.6292 5.34867 16.5867 5.33221 16.5428 5.33322C16.499 5.33424 16.4573 5.35265 16.4263 5.38463C16.3954 5.4166 16.3775 5.45966 16.3765 5.50487C16.3755 5.55008 16.3915 5.59394 16.4211 5.62731L16.9337 6.14914Z" fill="#F5F5F5"/>
<path d="M17.3158 6.33668L16.6785 6.80744C16.6451 6.83573 16.6233 6.87608 16.6177 6.92032C16.612 6.96455 16.6229 7.00935 16.6481 7.04561C16.6733 7.08187 16.7109 7.10688 16.7533 7.11556C16.7957 7.12424 16.8397 7.11594 16.8764 7.09234L17.5137 6.62158C17.5335 6.60888 17.5505 6.59214 17.5637 6.57237C17.577 6.55261 17.5862 6.53026 17.5907 6.5067C17.5952 6.48313 17.595 6.45886 17.5901 6.43538C17.5852 6.4119 17.5756 6.38971 17.5621 6.37018C17.5485 6.35066 17.5312 6.33422 17.5112 6.32187C17.4913 6.30952 17.469 6.30152 17.446 6.29838C17.4229 6.29524 17.3994 6.29702 17.377 6.3036C17.3547 6.31019 17.3338 6.32145 17.3158 6.33668Z" fill="#F5F5F5"/>
<path d="M17.2595 6.9912C17.2339 7.02516 17.2213 7.06762 17.224 7.11053C17.2267 7.15344 17.2446 7.19382 17.2743 7.22403C17.3073 7.30345 17.3193 7.39051 17.309 7.47627C17.3073 7.52269 17.3236 7.56787 17.3542 7.60193C17.3848 7.636 17.4273 7.65617 17.4722 7.65803H17.4792C17.5231 7.65807 17.5654 7.64054 17.5971 7.60913C17.6288 7.57773 17.6476 7.53488 17.6494 7.48954C17.6612 7.13213 17.5504 7.0004 17.4989 6.9616C17.4813 6.94727 17.4612 6.93667 17.4396 6.9304C17.4181 6.92414 17.3955 6.92232 17.3732 6.92507C17.351 6.92783 17.3295 6.93509 17.31 6.94644C17.2905 6.95779 17.2733 6.97299 17.2595 6.9912Z" fill="#F5F5F5"/>
<path d="M18.7397 8.28167C18.7849 8.28167 18.8281 8.26316 18.8601 8.23022C18.892 8.19728 18.9099 8.1526 18.9099 8.10602C18.9099 7.84766 18.8971 7.55867 18.8763 7.25845C19.0248 7.50353 19.157 7.75873 19.2721 8.02228C19.2857 8.05313 19.3078 8.07922 19.3356 8.09736C19.3633 8.11549 19.3956 8.12489 19.4285 8.12441C19.4516 8.1245 19.4745 8.11962 19.4958 8.1101C19.537 8.09168 19.5695 8.0572 19.5862 8.01416C19.6028 7.97113 19.6024 7.92302 19.5848 7.88035C19.3631 7.39805 19.1029 6.93557 18.807 6.49768C18.7407 5.85434 18.6536 5.22326 18.5853 4.77088C18.6226 4.77442 18.66 4.76468 18.6912 4.7433C18.7164 4.72633 18.7367 4.70267 18.7499 4.67482C18.7631 4.64696 18.7688 4.61594 18.7664 4.58502C18.7701 4.60262 18.7764 4.61951 18.7852 4.63505C18.8539 4.76613 18.876 4.91787 18.8476 5.06396C18.8394 5.10899 18.8485 5.15555 18.8731 5.19371C18.8977 5.23187 18.9358 5.25859 18.9792 5.26819C18.9907 5.26935 19.0023 5.26935 19.0138 5.26819C19.0529 5.2681 19.0907 5.25413 19.121 5.22866C19.1513 5.20319 19.1721 5.16774 19.1801 5.12828C19.2259 4.89294 19.1876 4.64846 19.0722 4.44002C19.048 4.4008 19.0097 4.37309 18.9658 4.36295C18.9218 4.3528 18.8758 4.36106 18.8377 4.3859C18.8124 4.40282 18.792 4.42643 18.7786 4.45427C18.7652 4.48212 18.7593 4.51317 18.7615 4.54418C18.7579 4.52623 18.7516 4.50898 18.7427 4.49312L18.4557 4.03257C18.4344 3.99846 18.4024 3.97301 18.365 3.96053C18.3276 3.94805 18.2871 3.94932 18.2505 3.96411C18.2139 3.97891 18.1834 4.00632 18.1642 4.0417C18.1449 4.07707 18.1381 4.11822 18.145 4.15817C18.145 4.17247 18.2776 4.94141 18.3924 5.86864C18.2617 5.6787 18.1321 5.49285 18.0054 5.31618C17.9847 5.05068 17.9639 4.8056 17.9461 4.60137L17.9738 4.59013C18.014 4.56931 18.0445 4.53292 18.0588 4.48891C18.0731 4.4449 18.0699 4.39686 18.05 4.35527L17.8798 4.005C17.8616 3.96895 17.8319 3.94051 17.7957 3.92452C17.7595 3.90853 17.7191 3.90597 17.6813 3.91729C17.6435 3.92861 17.6106 3.9531 17.5884 3.9866C17.5661 4.02009 17.5558 4.06051 17.5591 4.10099C17.5799 4.30522 17.6007 4.54213 17.6215 4.78517C17.5136 4.63914 17.4147 4.50537 17.3246 4.39202C17.3458 4.37316 17.3622 4.34918 17.3723 4.32222C17.3824 4.29525 17.3859 4.26614 17.3824 4.23745C17.379 4.20876 17.3688 4.18139 17.3527 4.15777C17.3365 4.13414 17.315 4.115 17.29 4.10201L16.9505 3.92636C16.9159 3.9087 16.8764 3.90374 16.8387 3.91229C16.8009 3.92084 16.7671 3.94241 16.7428 3.97343C16.7185 4.00445 16.7052 4.04309 16.705 4.08297C16.7048 4.12286 16.7177 4.16162 16.7417 4.19289C16.7506 4.20514 17.1692 4.74535 17.67 5.44383C17.7697 6.312 17.7909 7.18785 17.7333 8.06007C17.7185 8.10602 17.6927 8.16219 17.668 8.16219C17.569 8.17649 17.3206 7.93957 17.197 7.68632C17.1798 7.6386 17.1487 7.59759 17.1079 7.56902C17.0671 7.54046 17.0186 7.52577 16.9693 7.52701C16.7863 7.53825 16.715 7.74555 16.5864 8.12237C16.5148 8.38751 16.4007 8.63845 16.2489 8.86476C16.138 8.64995 16.0663 8.41597 16.0372 8.17444C16.0506 8.2132 16.0769 8.24582 16.1114 8.26653C16.1458 8.28724 16.1863 8.29471 16.2256 8.28763C16.2649 8.28054 16.3005 8.25935 16.3261 8.22781C16.3518 8.19626 16.3658 8.15638 16.3657 8.11521C16.3657 7.85379 16.1885 5.86251 16.0896 4.77088C16.1298 4.75438 16.1624 4.72271 16.1808 4.68231C16.1991 4.64191 16.2019 4.59582 16.1885 4.55337L16.0183 4.02747C16.0048 3.9869 15.9774 3.95284 15.9412 3.9317C15.9051 3.91057 15.8626 3.90382 15.822 3.91274C15.7813 3.92166 15.7452 3.94563 15.7205 3.98012C15.6958 4.01461 15.6842 4.05724 15.6878 4.09997C15.8036 5.35091 16.0203 7.76699 16.0263 8.0999V8.0907C16.0242 8.06695 16.0174 8.04389 16.0064 8.02291C15.9954 8.00193 15.9804 7.98347 15.9623 7.96868C15.9442 7.95389 15.9233 7.94306 15.901 7.93686C15.8786 7.93067 15.8553 7.92922 15.8325 7.93262C15.8096 7.93603 15.7876 7.9442 15.7679 7.95665C15.7482 7.9691 15.7311 7.98558 15.7178 8.00505C15.7044 8.02452 15.6951 8.04659 15.6902 8.06992C15.6854 8.09325 15.6853 8.11736 15.6898 8.14075C15.7393 8.49918 15.8659 9.11494 16.1579 9.21604C16.1869 9.22614 16.2173 9.23131 16.2479 9.23136C16.2933 9.23011 16.3379 9.21931 16.3791 9.19965C16.4203 9.17998 16.4571 9.15186 16.4874 9.11699C16.6815 8.85595 16.8244 8.55833 16.908 8.24082C16.9327 8.16832 16.9624 8.08253 16.9901 8.00901C17.1465 8.24388 17.4176 8.53594 17.6937 8.51347C17.7816 8.50385 17.8643 8.46562 17.9298 8.4043C17.9952 8.34299 18.0401 8.26177 18.0579 8.1724C18.1346 7.44463 18.1326 6.71032 18.0519 5.98301C18.1954 6.18724 18.3379 6.40169 18.4755 6.61103C18.5289 7.13592 18.5665 7.66182 18.5665 8.09377C18.5649 8.11811 18.5682 8.14252 18.5761 8.16548C18.5841 8.18844 18.5967 8.20943 18.613 8.22711C18.6293 8.24478 18.649 8.25877 18.6708 8.26816C18.6926 8.27756 18.7161 8.28216 18.7397 8.28167Z" fill="#F5F5F5"/>
<path d="M20.0321 7.35966C19.9114 6.43448 19.7441 5.36226 19.6363 4.70462C19.6608 4.71079 19.6864 4.71113 19.711 4.70565C19.7357 4.70017 19.7589 4.68899 19.7788 4.67296C19.8146 4.64464 19.838 4.60282 19.844 4.55667C19.8499 4.51053 19.8378 4.46384 19.8104 4.42686L19.5027 4.01022C19.4795 3.97903 19.4469 3.95676 19.41 3.94696C19.3731 3.93715 19.3341 3.9404 19.2993 3.95616C19.2644 3.97192 19.2357 3.9993 19.2176 4.0339C19.1996 4.06851 19.1933 4.10835 19.1999 4.14706C19.1999 4.16544 19.5056 5.96474 19.6946 7.40561C19.7406 7.63282 19.7395 7.86751 19.6912 8.09422C19.6429 8.32093 19.5487 8.53451 19.4146 8.72089C19.3355 8.80756 19.2381 8.87428 19.13 8.9159C19.0219 8.95751 18.906 8.9729 18.7912 8.96087C18.7683 8.95837 18.7453 8.96066 18.7233 8.9676C18.7014 8.97454 18.681 8.98599 18.6635 9.00126C18.646 9.01652 18.6316 9.03529 18.6213 9.05643C18.6109 9.07757 18.6048 9.10066 18.6034 9.12429C18.6019 9.14792 18.6051 9.17161 18.6127 9.19394C18.6203 9.21627 18.6323 9.23677 18.6478 9.25423C18.6633 9.27168 18.682 9.28573 18.7029 9.2955C18.7238 9.30528 18.7464 9.3106 18.7694 9.31113H18.8545C19.0058 9.31441 19.156 9.28463 19.2954 9.22373C19.4347 9.16284 19.56 9.0722 19.663 8.9578C19.833 8.73492 19.9541 8.47657 20.0179 8.20063C20.0816 7.92468 20.0865 7.63773 20.0321 7.35966Z" fill="#F5F5F5"/>
<path d="M18.1628 8.51627C18.133 8.5504 18.1172 8.59508 18.1187 8.64095C18.1202 8.68683 18.1388 8.73034 18.1707 8.76237C18.181 8.77224 18.1882 8.78504 18.1915 8.79914C18.1867 8.8144 18.1778 8.82789 18.1657 8.83794C18.1487 8.85395 18.1351 8.87333 18.1256 8.89494C18.1161 8.91654 18.1109 8.9399 18.1104 8.96362C18.1099 8.98735 18.114 9.01094 18.1226 9.03296C18.1312 9.05498 18.144 9.07499 18.1602 9.09177C18.1765 9.10855 18.1959 9.12176 18.2172 9.1306C18.2386 9.13943 18.2614 9.14369 18.2844 9.14316C18.3074 9.14262 18.33 9.13729 18.351 9.12748C18.3719 9.11767 18.3907 9.10358 18.4062 9.08606C18.4463 9.04812 18.4781 9.00183 18.4996 8.95025C18.5211 8.89868 18.5318 8.84299 18.5309 8.78686C18.5246 8.67712 18.4766 8.57439 18.3973 8.50093C18.364 8.4714 18.3208 8.45647 18.277 8.45933C18.2332 8.46219 18.1922 8.48264 18.1628 8.51627Z" fill="#F5F5F5"/>
<path d="M17.561 12.3608H16.3735V12.1851C16.3753 12.161 16.3722 12.1367 16.3645 12.1139C16.3568 12.091 16.3446 12.0701 16.3286 12.0524C16.3127 12.0346 16.2934 12.0205 16.2719 12.0108C16.2504 12.0011 16.2272 11.9961 16.2038 11.9961C16.1803 11.9961 16.1572 12.0011 16.1357 12.0108C16.1142 12.0205 16.0949 12.0346 16.0789 12.0524C16.063 12.0701 16.0508 12.091 16.0431 12.1139C16.0353 12.1367 16.0323 12.161 16.0341 12.1851V12.3608H7.02881C7.46347 12.7146 8.00426 12.9006 8.55772 12.8867H16.0341V13.2369C16.0341 13.2835 16.052 13.3282 16.0839 13.3611C16.1158 13.3941 16.1591 13.4126 16.2043 13.4126H17.561C17.6962 13.4126 17.8258 13.3572 17.9214 13.2585C18.017 13.1599 18.0707 13.0261 18.0707 12.8867C18.0707 12.7472 18.017 12.6134 17.9214 12.5148C17.8258 12.4162 17.6962 12.3608 17.561 12.3608ZM17.561 13.0623H16.3735V12.8867H17.7332L17.7025 12.7927C17.7215 12.8202 17.7322 12.8529 17.7332 12.8867C17.7332 12.9099 17.7287 12.9329 17.72 12.9543C17.7114 12.9758 17.6987 12.9953 17.6826 13.0116C17.6666 13.0279 17.6476 13.0408 17.6268 13.0495C17.6059 13.0582 17.5835 13.0626 17.561 13.0623Z" fill="#F5F5F5"/>
</g>
<defs>
<clipPath id="clip0_547_862">
<rect width="25" height="16.9024" fill="white"/>
</clipPath>
</defs>
</svg>
