<svg width="20" height="20" viewBox="0 0 20 20" fill="none" xmlns="http://www.w3.org/2000/svg">
<g clip-path="url(#clip0_5480_900)">
<path d="M7.44199 1.66797H4.18366C2.50033 1.66797 1.66699 2.5013 1.66699 4.18464V7.4513C1.66699 9.16797 2.50033 10.0013 4.18366 9.95964H7.45033C9.16699 10.0013 10.0003 9.16797 9.95866 7.44297V4.18464C10.0003 2.5013 9.16699 1.66797 7.44199 1.66797ZM7.50866 8.13464C6.92939 8.12633 6.37163 7.91385 5.93366 7.53464C5.40704 7.9222 4.77085 8.13232 4.11699 8.13464C3.95123 8.13464 3.79226 8.06879 3.67505 7.95158C3.55784 7.83437 3.49199 7.6754 3.49199 7.50964C3.49199 7.34388 3.55784 7.1849 3.67505 7.06769C3.79226 6.95048 3.95123 6.88464 4.11699 6.88464C4.52744 6.8768 4.92475 6.73852 5.25136 6.48981C5.57798 6.24111 5.81695 5.89489 5.93366 5.5013H4.11699C3.95123 5.5013 3.79226 5.43545 3.67505 5.31824C3.55784 5.20103 3.49199 5.04206 3.49199 4.8763C3.49199 4.71054 3.55784 4.55157 3.67505 4.43436C3.79226 4.31715 3.95123 4.2513 4.11699 4.2513H5.19199C5.20587 4.09734 5.27684 3.95413 5.39096 3.84984C5.50507 3.74555 5.65407 3.68772 5.80866 3.68772C5.96325 3.68772 6.11225 3.74555 6.22636 3.84984C6.34047 3.95413 6.41145 4.09734 6.42533 4.2513H7.50033C7.66609 4.2513 7.82506 4.31715 7.94227 4.43436C8.05948 4.55157 8.12533 4.71054 8.12533 4.8763C8.12533 5.04206 8.05948 5.20103 7.94227 5.31824C7.82506 5.43545 7.66609 5.5013 7.50033 5.5013H7.22533C7.14692 5.89719 6.99727 6.27555 6.78366 6.61797C6.98988 6.78336 7.24442 6.87698 7.50866 6.88464C7.67442 6.88464 7.83339 6.95048 7.9506 7.06769C8.06781 7.1849 8.13366 7.34388 8.13366 7.50964C8.13366 7.6754 8.06781 7.83437 7.9506 7.95158C7.83339 8.06879 7.67442 8.13464 7.50866 8.13464Z" fill="#16B7F7"/>
<path d="M7.50033 18.9583C5.78835 18.9555 4.14731 18.2741 2.93676 17.0636C1.72621 15.853 1.04486 14.212 1.04199 12.5C1.04308 12.3346 1.10928 12.1762 1.22626 12.0593C1.34323 11.9423 1.50157 11.8761 1.66699 11.875C1.83242 11.8761 1.99075 11.9423 2.10773 12.0593C2.2247 12.1762 2.2909 12.3346 2.29199 12.5C2.29298 13.6757 2.69102 14.8166 3.42159 15.7377C4.15216 16.6589 5.17242 17.3063 6.31699 17.575L6.09199 17.2C6.0069 17.0574 5.98193 16.8869 6.02256 16.726C6.06319 16.565 6.16611 16.4268 6.30866 16.3417C6.45121 16.2566 6.62173 16.2316 6.7827 16.2722C6.94367 16.3129 7.0819 16.4158 7.16699 16.5583L8.04199 18.0167C8.09853 18.1108 8.12909 18.2182 8.13055 18.328C8.13202 18.4378 8.10433 18.5461 8.05033 18.6417C7.9933 18.737 7.91281 18.8162 7.81654 18.8716C7.72027 18.927 7.61141 18.9569 7.50033 18.9583Z" fill="#16B7F7"/>
<path d="M18.333 8.1263C18.1676 8.12521 18.0092 8.05901 17.8923 7.94204C17.7753 7.82506 17.7091 7.66673 17.708 7.5013C17.707 6.32561 17.309 5.18472 16.5784 4.26357C15.8478 3.34242 14.8276 2.69501 13.683 2.4263L13.908 2.8013C13.9501 2.87189 13.978 2.95008 13.9899 3.03142C14.0018 3.11275 13.9976 3.19564 13.9774 3.27534C13.9573 3.35505 13.9217 3.43001 13.8726 3.49594C13.8235 3.56188 13.7619 3.6175 13.6913 3.65964C13.6207 3.70177 13.5426 3.72959 13.4612 3.7415C13.3799 3.75341 13.297 3.74919 13.2173 3.72907C13.1376 3.70895 13.0626 3.67333 12.9967 3.62424C12.9308 3.57515 12.8751 3.51355 12.833 3.44297L11.958 1.98464C11.902 1.89021 11.872 1.78261 11.8711 1.67281C11.8702 1.56301 11.8985 1.45495 11.953 1.35964C12.0097 1.26478 12.0897 1.18593 12.1853 1.13052C12.281 1.07512 12.3892 1.04499 12.4997 1.04297C14.2116 1.04583 15.8527 1.72718 17.0632 2.93773C18.2738 4.14829 18.9551 5.78933 18.958 7.5013C18.9569 7.66673 18.8907 7.82506 18.7737 7.94204C18.6568 8.05901 18.4984 8.12521 18.333 8.1263Z" fill="#16B7F7"/>
<path d="M14.0995 9.875C13.2623 9.875 12.4438 10.1233 11.7476 10.5884C11.0515 11.0536 10.5089 11.7148 10.1885 12.4883C9.86805 13.2618 9.78421 14.113 9.94756 14.9342C10.1109 15.7554 10.5141 16.5097 11.1061 17.1018C11.6982 17.6938 12.4525 18.097 13.2737 18.2603C14.0948 18.4237 14.946 18.3398 15.7196 18.0194C16.4931 17.699 17.1543 17.1564 17.6194 16.4602C18.0846 15.7641 18.3329 14.9456 18.3329 14.1083C18.3327 12.9857 17.8866 11.909 17.0927 11.1152C16.2989 10.3213 15.2222 9.87522 14.0995 9.875ZM16.1662 16.1167C16.017 16.1906 15.8446 16.2023 15.6867 16.1492C15.5289 16.096 15.3987 15.9824 15.3245 15.8333L15.1829 15.55H13.0245L12.8829 15.8333C12.8303 15.9362 12.7503 16.0225 12.6518 16.0827C12.5533 16.143 12.44 16.1749 12.3245 16.175C12.2181 16.1738 12.1136 16.1457 12.0209 16.0932C11.9283 16.0408 11.8504 15.9657 11.7947 15.8749C11.7389 15.7842 11.707 15.6808 11.7021 15.5745C11.6971 15.4681 11.7192 15.3622 11.7662 15.2667L13.5495 11.7083C13.6027 11.6059 13.6828 11.52 13.7812 11.4598C13.8795 11.3996 13.9925 11.3674 14.1079 11.3667C14.2243 11.3673 14.3382 11.4004 14.4368 11.4622C14.5355 11.5241 14.6149 11.6122 14.6662 11.7167L16.4495 15.275C16.5215 15.4245 16.5321 15.5962 16.4792 15.7535C16.4262 15.9107 16.3139 16.0411 16.1662 16.1167Z" fill="#16B7F7"/>
<path d="M13.6504 14.299H14.5587L14.1004 13.3906L13.6504 14.299Z" fill="#16B7F7"/>
</g>
<defs>
<clipPath id="clip0_5480_900">
<rect width="20" height="20" fill="white"/>
</clipPath>
</defs>
</svg>
