<svg width="28" height="28" viewBox="0 0 28 28" fill="none" xmlns="http://www.w3.org/2000/svg">
<path d="M23.625 20.125H9.52878C9.29671 20.125 9.07415 20.2172 8.91006 20.3813C8.74596 20.5454 8.65378 20.7679 8.65378 21C8.65727 21.131 8.69016 21.2596 8.75003 21.3763V23.1875C8.75003 23.5356 8.61175 23.8694 8.3656 24.1156C8.11946 24.3617 7.78562 24.5 7.43753 24.5C7.08943 24.5 6.75559 24.3617 6.50945 24.1156C6.26331 23.8694 6.12503 23.5356 6.12503 23.1875C6.13418 23.1149 6.13418 23.0414 6.12503 22.9688C6.13418 22.8961 6.13418 22.8226 6.12503 22.75V3.5H19.25V17.5C19.25 17.7321 19.3422 17.9546 19.5063 18.1187C19.6704 18.2828 19.893 18.375 20.125 18.375C20.3571 18.375 20.5797 18.2828 20.7437 18.1187C20.9078 17.9546 21 17.7321 21 17.5V2.625C21 2.39294 20.9078 2.17038 20.7437 2.00628C20.5797 1.84219 20.3571 1.75 20.125 1.75H5.25003C5.01796 1.75 4.7954 1.84219 4.63131 2.00628C4.46721 2.17038 4.37503 2.39294 4.37503 2.625V22.75C4.36588 22.8226 4.36588 22.8961 4.37503 22.9688C4.36588 23.0414 4.36588 23.1149 4.37503 23.1875C4.37503 23.9997 4.69768 24.7787 5.27201 25.353C5.84634 25.9273 6.6253 26.25 7.43753 26.25C8.24975 26.25 9.02871 25.9273 9.60304 25.353C10.1774 24.7787 10.5 23.9997 10.5 23.1875V21.875H22.75V23.1875C22.7643 23.5203 22.6462 23.8452 22.4215 24.0912C22.1969 24.3371 21.884 24.4841 21.5513 24.5H12.25C12.018 24.5 11.7954 24.5922 11.6313 24.7563C11.4672 24.9204 11.375 25.1429 11.375 25.375C11.375 25.6071 11.4672 25.8296 11.6313 25.9937C11.7954 26.1578 12.018 26.25 12.25 26.25H21.5513C22.3481 26.2339 23.106 25.9025 23.6588 25.3284C24.2116 24.7543 24.5141 23.9843 24.5 23.1875V21C24.5 20.7679 24.4078 20.5454 24.2437 20.3813C24.0797 20.2172 23.8571 20.125 23.625 20.125Z" fill="#16B7F7"/>
<path d="M15.75 14.875H9.625C9.39294 14.875 9.17038 14.9672 9.00628 15.1313C8.84219 15.2954 8.75 15.5179 8.75 15.75C8.75 15.9821 8.84219 16.2046 9.00628 16.3687C9.17038 16.5328 9.39294 16.625 9.625 16.625H15.75C15.9821 16.625 16.2046 16.5328 16.3687 16.3687C16.5328 16.2046 16.625 15.9821 16.625 15.75C16.625 15.5179 16.5328 15.2954 16.3687 15.1313C16.2046 14.9672 15.9821 14.875 15.75 14.875Z" fill="#16B7F7"/>
<path d="M15.75 11.375H9.625C9.39294 11.375 9.17038 11.4672 9.00628 11.6313C8.84219 11.7954 8.75 12.0179 8.75 12.25C8.75 12.4821 8.84219 12.7046 9.00628 12.8687C9.17038 13.0328 9.39294 13.125 9.625 13.125H15.75C15.9821 13.125 16.2046 13.0328 16.3687 12.8687C16.5328 12.7046 16.625 12.4821 16.625 12.25C16.625 12.0179 16.5328 11.7954 16.3687 11.6313C16.2046 11.4672 15.9821 11.375 15.75 11.375Z" fill="#16B7F7"/>
<path d="M15.75 7.875H9.625C9.39294 7.875 9.17038 7.96719 9.00628 8.13128C8.84219 8.29538 8.75 8.51794 8.75 8.75C8.75 8.98206 8.84219 9.20462 9.00628 9.36872C9.17038 9.53281 9.39294 9.625 9.625 9.625H15.75C15.9821 9.625 16.2046 9.53281 16.3687 9.36872C16.5328 9.20462 16.625 8.98206 16.625 8.75C16.625 8.51794 16.5328 8.29538 16.3687 8.13128C16.2046 7.96719 15.9821 7.875 15.75 7.875Z" fill="#16B7F7"/>
</svg>
