<svg width="20" height="20" viewBox="0 0 20 20" fill="none" xmlns="http://www.w3.org/2000/svg">
<g clip-path="url(#clip0_547_4675)">
<path d="M15.9748 5.53359C15.6165 3.72526 14.2748 2.93359 12.4081 2.93359H5.09147C2.89147 2.93359 1.4248 4.03359 1.4248 6.60026V10.8919C1.4248 12.7419 2.18314 13.8253 3.43314 14.2919C3.62492 14.3633 3.82302 14.4163 4.0248 14.4503C4.37529 14.5255 4.73301 14.5618 5.09147 14.5586H12.4165C14.6165 14.5586 16.0831 13.4586 16.0831 10.8919V6.60026C16.0877 6.24174 16.0513 5.88388 15.9748 5.53359ZM4.60814 10.0003C4.60814 10.166 4.54229 10.325 4.42508 10.4422C4.30787 10.5594 4.1489 10.6253 3.98314 10.6253C3.81738 10.6253 3.65841 10.5594 3.5412 10.4422C3.42399 10.325 3.35814 10.166 3.35814 10.0003V7.50026C3.35814 7.3345 3.42399 7.17553 3.5412 7.05832C3.65841 6.94111 3.81738 6.87526 3.98314 6.87526C4.1489 6.87526 4.30787 6.94111 4.42508 7.05832C4.54229 7.17553 4.60814 7.3345 4.60814 7.50026V10.0003ZM8.7498 10.9503C8.31469 10.9503 7.88934 10.8212 7.52755 10.5795C7.16576 10.3378 6.88378 9.99416 6.71727 9.59216C6.55076 9.19017 6.50719 8.74782 6.59208 8.32106C6.67696 7.8943 6.88649 7.5023 7.19417 7.19463C7.50185 6.88695 7.89385 6.67742 8.32061 6.59253C8.74736 6.50765 9.18971 6.55121 9.59171 6.71773C9.99371 6.88424 10.3373 7.16622 10.579 7.52801C10.8208 7.88979 10.9498 8.31514 10.9498 8.75026C10.9501 9.03926 10.8935 9.32549 10.783 9.59255C10.6726 9.85962 10.5105 10.1023 10.3062 10.3066C10.1018 10.511 9.85916 10.673 9.5921 10.7835C9.32503 10.8939 9.03881 10.9506 8.7498 10.9503ZM14.1331 10.0003C14.1331 10.166 14.0673 10.325 13.9501 10.4422C13.8329 10.5594 13.6739 10.6253 13.5081 10.6253C13.3424 10.6253 13.1834 10.5594 13.0662 10.4422C12.949 10.325 12.8831 10.166 12.8831 10.0003V7.50026C12.8831 7.3345 12.949 7.17553 13.0662 7.05832C13.1834 6.94111 13.3424 6.87526 13.5081 6.87526C13.6739 6.87526 13.8329 6.94111 13.9501 7.05832C14.0673 7.17553 14.1331 7.3345 14.1331 7.50026V10.0003Z" fill="#16B7F7"/>
<path d="M18.5832 9.09945V13.3911C18.5832 15.9578 17.1165 17.0661 14.9082 17.0661H7.5915C7.02388 17.0761 6.45917 16.9829 5.92483 16.7911C5.5488 16.6594 5.20509 16.4492 4.9165 16.1744C4.88469 16.1431 4.86346 16.1025 4.85576 16.0585C4.84805 16.0145 4.85426 15.9692 4.87351 15.9288C4.89275 15.8885 4.92409 15.8552 4.96316 15.8335C5.00223 15.8118 5.04709 15.8028 5.0915 15.8078H12.4082C15.4915 15.8078 17.3248 13.9744 17.3248 10.8994V6.59945C17.3208 6.55539 17.3304 6.51117 17.3523 6.47273C17.3742 6.43428 17.4074 6.40347 17.4473 6.38441C17.4872 6.36536 17.532 6.35898 17.5757 6.36614C17.6193 6.37329 17.6597 6.39364 17.6915 6.42445C18.3259 7.16585 18.6459 8.12566 18.5832 9.09945Z" fill="#16B7F7"/>
</g>
<defs>
<clipPath id="clip0_547_4675">
<rect width="20" height="20" fill="white"/>
</clipPath>
</defs>
</svg>
