<svg width="19" height="20" viewBox="0 0 19 20" fill="none" xmlns="http://www.w3.org/2000/svg">
<path d="M1.55473 19.8002C2.01383 19.9964 2.52141 20.0497 3.01125 19.9531C3.50108 19.8565 3.95044 19.6145 4.30069 19.2587L9.24864 14.3377L14.1966 19.2587C14.4273 19.4928 14.7021 19.6788 15.0052 19.8059C15.3083 19.9331 15.6335 19.9988 15.9622 19.9994C16.3 19.9985 16.6343 19.9307 16.9459 19.8002C17.4088 19.6129 17.8044 19.2903 18.0811 18.8747C18.3578 18.4591 18.5028 17.9697 18.4971 17.4704V4.20386C18.4958 3.08934 18.0525 2.02084 17.2644 1.23276C16.4763 0.444669 15.4078 0.00133503 14.2933 0L4.20401 0C3.08948 0.00133503 2.02099 0.444669 1.2329 1.23276C0.444816 2.02084 0.00148144 3.08934 0.000146417 4.20386V17.4704C-0.00527923 17.9701 0.140199 18.4598 0.417559 18.8754C0.694919 19.2911 1.09125 19.6134 1.55473 19.8002Z" fill="#16B7F7"/>
</svg>
