<svg width="19" height="20" viewBox="0 0 19 20" fill="none" xmlns="http://www.w3.org/2000/svg">
<path d="M17.7053 7.51605L10.1892 0L3.28999 0.747687L3.4692 2.40477L9.57489 1.74377L16.5266 8.69467C16.7734 8.9414 16.7734 9.34234 16.5166 9.59823L15.7148 10.4268L8.45711 3.16913L0.841044 4.21022L0 11.8146L7.51271 19.3265C7.94699 19.7608 8.5238 20 9.13812 20C9.75244 20 10.3301 19.7608 10.7735 19.3173L15.9782 13.9418C16.5325 13.3875 16.7417 12.6182 16.6108 11.8988L17.7061 10.7677C18.6021 9.8708 18.6013 8.4121 17.7053 7.51605ZM4.20688 8.33042C3.74677 8.33042 3.37334 7.95699 3.37334 7.49687C3.37334 7.03676 3.74677 6.66333 4.20688 6.66333C4.667 6.66333 5.04043 7.03676 5.04043 7.49687C5.04043 7.95699 4.667 8.33042 4.20688 8.33042Z" fill="#16B7F7"/>
</svg>
