<svg width="20" height="20" viewBox="0 0 20 20" fill="none" xmlns="http://www.w3.org/2000/svg">
<path d="M9.94967 1.8366L7.94134 6.51494H5.93301C5.60571 6.51159 5.27895 6.54231 4.95801 6.6066L5.79134 4.6066L5.82467 4.5316L5.87467 4.39827C5.89377 4.34694 5.91603 4.29684 5.94134 4.24827C6.90801 2.00327 7.99134 1.3066 9.94967 1.8366Z" fill="#16B7F7"/>
<path d="M15.6079 6.74323L15.5913 6.7349C15.0954 6.59243 14.5822 6.51951 14.0663 6.51823H8.84961L10.7246 2.1599L10.7496 2.10156C10.8663 2.14323 10.9913 2.20156 11.1163 2.24323L12.9579 3.01823C13.7867 3.30467 14.5352 3.78461 15.1413 4.41823C15.2163 4.51823 15.2829 4.6099 15.3496 4.71823C15.4235 4.82823 15.4798 4.94914 15.5163 5.07656C15.5487 5.14602 15.5738 5.21862 15.5913 5.29323C15.7188 5.76745 15.7245 6.2662 15.6079 6.74323Z" fill="#16B7F7"/>
<path d="M15.2412 7.93237C14.8594 7.82166 14.4638 7.76555 14.0662 7.7657H5.93288C5.38282 7.76233 4.83803 7.87299 4.33288 8.0907C3.6013 8.40542 2.97788 8.92744 2.53954 9.59236C2.1012 10.2573 1.86713 11.036 1.86621 11.8324L1.86621 13.4574C1.86765 13.6553 1.88156 13.8529 1.90788 14.049C2.09121 16.699 3.50788 18.1129 6.15788 18.2907C6.35397 18.3176 6.55162 18.3315 6.74954 18.3324H13.2495C16.3329 18.3324 17.9579 16.8657 18.1162 13.949C18.1245 13.7907 18.1329 13.624 18.1329 13.4574V11.8324C18.1317 10.9584 17.8501 10.1079 17.3296 9.40593C16.8091 8.70391 16.0771 8.18741 15.2412 7.93237ZM12.0829 13.9574H7.91621C7.75045 13.9574 7.59148 13.8915 7.47427 13.7743C7.35706 13.6571 7.29121 13.4981 7.29121 13.3324C7.29121 13.1666 7.35706 13.0076 7.47427 12.8904C7.59148 12.7732 7.75045 12.7074 7.91621 12.7074H12.0829C12.2486 12.7074 12.4076 12.7732 12.5248 12.8904C12.642 13.0076 12.7079 13.1666 12.7079 13.3324C12.7079 13.4981 12.642 13.6571 12.5248 13.7743C12.4076 13.8915 12.2486 13.9574 12.0829 13.9574Z" fill="#16B7F7"/>
</svg>
