<svg width="24" height="24" viewBox="0 0 24 24" fill="none" xmlns="http://www.w3.org/2000/svg">
<g clip-path="url(#clip0_578_1808)">
<path opacity="0.4" d="M21.6602 10.4405L20.6802 14.6205C19.8402 18.2305 18.1802 19.6905 15.0602 19.3905C14.514 19.3429 13.9723 19.2526 13.4402 19.1205L11.7602 18.7205C7.59018 17.7305 6.30018 15.6705 7.28018 11.4905L8.26018 7.3005C8.42458 6.54201 8.67277 5.80415 9.00018 5.1005C10.1692 2.6805 12.1602 2.0305 15.5002 2.8205L17.1702 3.2105C21.3602 4.1905 22.6402 6.2605 21.6602 10.4405Z" fill="#16B7F7"/>
<path d="M15.0603 19.3896C14.3307 19.8565 13.5398 20.2199 12.7103 20.4696L11.1303 20.9896C7.16034 22.2696 5.07034 21.1996 3.78034 17.2296L2.50034 13.2796C1.22034 9.30961 2.28034 7.20961 6.25034 5.92961L7.83034 5.40961C8.21388 5.28326 8.60456 5.17975 9.00034 5.09961C8.67293 5.80326 8.42474 6.54112 8.26034 7.29961L7.28034 11.4896C6.30034 15.6696 7.59034 17.7296 11.7603 18.7196L13.4403 19.1196C13.9725 19.2517 14.5141 19.342 15.0603 19.3896Z" fill="#16B7F7"/>
<path d="M17.487 10.5103C17.4232 10.5081 17.3597 10.5014 17.297 10.4903L12.45 9.26034C12.3547 9.23605 12.2653 9.19324 12.1866 9.13436C12.1079 9.07548 12.0416 9.00168 11.9915 8.91718C11.8902 8.74652 11.8609 8.54262 11.91 8.35034C11.959 8.15806 12.0825 7.99315 12.2531 7.89188C12.4238 7.79061 12.6277 7.76128 12.82 7.81034L17.67 9.04034C17.8468 9.08426 18.0014 9.19136 18.1047 9.34143C18.2079 9.49151 18.2527 9.67418 18.2306 9.85501C18.2084 10.0358 18.1209 10.2023 17.9845 10.323C17.848 10.4438 17.6721 10.5104 17.49 10.5103H17.487Z" fill="#16B7F7"/>
<path d="M14.5597 13.8895C14.496 13.8873 14.4325 13.8806 14.3697 13.8695L11.4597 13.1295C11.3645 13.1052 11.275 13.0624 11.1964 13.0035C11.1177 12.9446 11.0514 12.8708 11.0013 12.7863C10.9 12.6157 10.8707 12.4118 10.9197 12.2195C10.9688 12.0272 11.0922 11.8623 11.2629 11.761C11.4335 11.6597 11.6374 11.6304 11.8297 11.6795L14.7397 12.4195C14.9319 12.4687 15.0967 12.5922 15.1979 12.7628C15.2991 12.9334 15.3286 13.1372 15.2797 13.3295C15.2415 13.4909 15.1492 13.6344 15.0183 13.7362C14.8874 13.8381 14.7256 13.8921 14.5597 13.8895Z" fill="#16B7F7"/>
</g>
<defs>
<clipPath id="clip0_578_1808">
<rect width="24" height="24" fill="white"/>
</clipPath>
</defs>
</svg>
