<svg width="24" height="29" viewBox="0 0 24 29" fill="none" xmlns="http://www.w3.org/2000/svg">
<path fill-rule="evenodd" clip-rule="evenodd" d="M23.1423 4.28571C23.1423 6.65264 21.2236 8.57143 18.8566 8.57143C16.4896 8.57143 14.5709 6.65264 14.5709 4.28571C14.5709 1.91879 16.4896 0 18.8566 0C21.2236 0 23.1423 1.91879 23.1423 4.28571ZM20.7474 11.1756C20.1452 11.3405 19.5112 11.4286 18.8566 11.4286C14.9117 11.4286 11.7137 8.2306 11.7137 4.28571C11.7137 3.79687 11.7629 3.31951 11.8564 2.85827C11.8089 2.85753 11.7613 2.85714 11.7137 2.85714C7.1008 2.85714 3.21918 6.41551 2.68464 11.1343L2.19196 15.4836C2.06953 16.5643 1.63153 17.5813 0.935856 18.4C-0.54043 20.1377 0.657741 22.8571 2.89964 22.8571H20.5279C22.7697 22.8571 23.9679 20.1377 22.4916 18.4C21.7959 17.5813 21.3579 16.5643 21.2354 15.4836L20.7474 11.1756ZM15.9596 25.8164C15.3062 27.4274 13.6516 28.5714 11.7137 28.5714C9.77587 28.5714 8.12124 27.4274 7.46786 25.8164C7.44063 25.7493 7.42801 25.6771 7.42801 25.6047C7.42801 25.2707 7.69874 25 8.03271 25H15.3947C15.7287 25 15.9994 25.2707 15.9994 25.6047C15.9994 25.6771 15.9869 25.7493 15.9596 25.8164Z" fill="#16B7F7"/>
</svg>
