<svg width="22" height="24" viewBox="0 0 22 24" fill="none" xmlns="http://www.w3.org/2000/svg">
<path d="M12 0H10C8.34315 0 7 1.34315 7 3V4H1C0.447715 4 0 4.44772 0 5C0 5.55228 0.447715 6 1 6H2V20C2 22.2091 3.79086 24 6 24H16C18.2091 24 20 22.2091 20 20V6H21C21.5523 6 22 5.55228 22 5C22 4.44772 21.5523 4 21 4H15V3C15 1.34315 13.6569 0 12 0ZM9 3C9 2.44772 9.44772 2 10 2H12C12.5523 2 13 2.44772 13 3V4H9V3ZM18 20C18 21.1046 17.1046 22 16 22H6C4.89543 22 4 21.1046 4 20V6H18V20Z" fill="#E50930"/>
<path d="M11 9C10.4477 9 10 9.44772 10 10V18C10 18.5523 10.4477 19 11 19C11.5523 19 12 18.5523 12 18V10C12 9.44771 11.5523 9 11 9Z" fill="#E50930"/>
<path d="M14 18C14 18.5523 14.4477 19 15 19C15.5523 19 16 18.5523 16 18V10C16 9.44771 15.5523 9 15 9C14.4477 9 14 9.44772 14 10V18Z" fill="#E50930"/>
<path d="M7 9C6.44772 9 6 9.44772 6 10V18C6 18.5523 6.44772 19 7 19C7.55229 19 8 18.5523 8 18V10C8 9.44771 7.55228 9 7 9Z" fill="#E50930"/>
</svg>
