<svg width="20" height="20" viewBox="0 0 20 20" fill="none" xmlns="http://www.w3.org/2000/svg">
<path d="M16.1827 12.3402L16.1824 12.3399L16.1822 12.3396C16.0824 12.2282 15.954 12.1463 15.8108 12.1029L10.4022 10.4681C10.1402 10.3882 9.86023 10.3882 9.59816 10.4681L4.18899 12.103C4.04599 12.1464 3.91764 12.2283 3.81794 12.3396L3.81771 12.3399L3.81744 12.3402C3.68475 12.4891 3.6114 12.6816 3.61133 12.881V17.1818C3.61064 17.3564 3.66645 17.5264 3.77044 17.6666C3.87442 17.8068 4.02099 17.9096 4.18823 17.9595L9.5959 19.6018C9.72682 19.6419 9.86297 19.6622 9.99988 19.6621C10.0186 19.662 10.0373 19.6595 10.0553 19.6546C10.0549 19.6564 10.0547 19.6583 10.0542 19.6601C10.1726 19.6559 10.29 19.6364 10.4034 19.602L15.8158 17.9581C15.982 17.9074 16.1275 17.8046 16.2306 17.6647C16.3337 17.5249 16.3891 17.3556 16.3884 17.1818V12.881C16.3884 12.6816 16.3152 12.4891 16.1827 12.3402ZM9.78503 19.208C9.7636 19.203 9.74232 19.1973 9.72121 19.1908L4.31308 17.5484C4.23424 17.5248 4.16513 17.4764 4.11609 17.4103C4.06705 17.3443 4.04071 17.2641 4.04101 17.1818V12.881C4.04102 12.8311 4.05083 12.7816 4.06989 12.7354L9.66809 14.4358L9.68846 14.442L9.78503 14.4713V19.208ZM9.99988 14.0875L4.56752 12.4375L9.72278 10.8793C9.90366 10.8242 10.0968 10.8243 10.2777 10.8794L15.4326 12.4375L13.7402 12.9515L11.2099 12.1888C11.1823 12.1802 11.1527 12.18 11.1249 12.1881L9.84937 12.5502C9.83304 12.5549 9.81865 12.5647 9.80837 12.5782C9.79809 12.5918 9.79246 12.6083 9.79232 12.6252C9.79219 12.6422 9.79755 12.6588 9.80762 12.6725C9.81769 12.6862 9.83191 12.6962 9.84817 12.7011L12.2187 13.4136L9.99988 14.0875ZM15.9587 17.1818C15.9591 17.2635 15.9332 17.3431 15.8848 17.4089C15.8364 17.4748 15.7681 17.5232 15.6901 17.5472L10.2779 19.191C10.2571 19.1974 10.236 19.2031 10.2147 19.208V14.4713L12.5816 13.7524V15.5112C12.5816 15.5346 12.587 15.5577 12.5974 15.5786C12.6078 15.5996 12.6228 15.6179 12.6414 15.632C12.66 15.6462 12.6816 15.6559 12.7046 15.6604C12.7276 15.6648 12.7512 15.6639 12.7738 15.6577L13.9993 15.3202C14.0314 15.3114 14.0597 15.2922 14.0799 15.2658C14.1001 15.2393 14.111 15.2069 14.1109 15.1736V13.3357C14.1109 13.3201 14.1099 13.3045 14.1079 13.2889V13.2889L15.9587 12.7268L15.9587 17.1818Z" fill="#16B7F7"/>
<path d="M10.582 18.54L12.2862 17.9915V17.5547L10.582 18.1031V18.54Z" fill="#16B7F7"/>
<path d="M10.582 17.7392L12.2862 17.1907V16.7539L10.582 17.3023V17.7392Z" fill="#16B7F7"/>
<path d="M9.48383 9.17401C9.63517 9.26546 9.80864 9.3138 9.98546 9.3138C10.1623 9.3138 10.3358 9.26546 10.4871 9.17401C11.4938 8.56687 13.6643 6.81166 13.6594 2.96601C13.6599 2.82988 13.6091 2.69855 13.5172 2.5982C13.4252 2.49786 13.2987 2.43589 13.1631 2.42464C12.5028 2.37474 11.3013 2.10667 10.4456 0.893612C10.3938 0.819697 10.3249 0.759358 10.2448 0.717702C10.1647 0.676045 10.0757 0.654297 9.98546 0.654297C9.89517 0.654297 9.80622 0.676045 9.72611 0.717702C9.64601 0.759358 9.57712 0.819697 9.52527 0.893612C8.66958 2.10667 7.46809 2.37474 6.80786 2.42464C6.67219 2.43588 6.54575 2.49785 6.45375 2.5982C6.36176 2.69854 6.31097 2.82988 6.31153 2.96601C6.30666 6.81166 8.47716 8.56687 9.48383 9.17401ZM7.45744 3.2413C8.35158 3.08205 9.17053 2.63869 9.79268 1.97704C9.81742 1.95072 9.84729 1.92974 9.88044 1.9154C9.91359 1.90106 9.94934 1.89366 9.98546 1.89366C10.0216 1.89366 10.0573 1.90106 10.0905 1.9154C10.1236 1.92974 10.1535 1.95072 10.1782 1.97704C10.8004 2.63871 11.6193 3.08208 12.5135 3.2413C12.5773 3.25301 12.6346 3.28756 12.6748 3.33848C12.715 3.38941 12.7353 3.45322 12.7318 3.518C12.568 6.5226 10.8315 7.89595 10.0634 8.35919C10.0399 8.37351 10.013 8.3811 9.98551 8.38111C9.95804 8.38112 9.9311 8.37356 9.90765 8.35925C9.13948 7.89595 7.40296 6.52257 7.23911 3.518C7.23566 3.45322 7.25593 3.38941 7.29611 3.33849C7.33629 3.28756 7.39364 3.25301 7.45744 3.2413Z" fill="#16B7F7"/>
<path d="M10.0013 6.59158C10.3865 6.59125 10.7569 6.4436 11.0366 6.17889C11.3163 5.91418 11.4842 5.55249 11.5057 5.16797H11.0299C11.0138 5.36789 10.9397 5.55877 10.8168 5.71728C10.694 5.87579 10.5276 5.99505 10.338 6.06048C10.1484 6.12592 9.94382 6.13469 9.74933 6.08571C9.55484 6.03674 9.37883 5.93216 9.24284 5.78474C9.10684 5.63733 9.01675 5.45348 8.98358 5.25568C8.95041 5.05788 8.9756 4.8547 9.05607 4.67099C9.13654 4.48728 9.26881 4.331 9.43668 4.22126C9.60456 4.11152 9.80078 4.05309 10.0013 4.0531V3.57813C9.80327 3.57781 9.60708 3.61655 9.424 3.69212C9.24091 3.7677 9.07453 3.87863 8.93436 4.01858C8.79419 4.15852 8.68298 4.32473 8.60711 4.50769C8.53124 4.69066 8.49219 4.88678 8.49219 5.08486C8.49219 5.28293 8.53124 5.47905 8.60711 5.66202C8.68298 5.84498 8.79419 6.01119 8.93436 6.15113C9.07453 6.29108 9.24091 6.40201 9.424 6.47759C9.60708 6.55317 9.80327 6.5919 10.0013 6.59158Z" fill="#16B7F7"/>
<path d="M9.58457 4.58982L9.20215 4.93938L9.77157 5.56236C9.79565 5.58871 9.82492 5.60979 9.85753 5.6243C9.89015 5.6388 9.92541 5.64641 9.9611 5.64665H9.9628C9.99821 5.64664 10.0332 5.63938 10.0657 5.62532C10.0982 5.61125 10.1275 5.59067 10.1517 5.56485L11.3605 4.27641L10.9826 3.92188L9.96526 5.00628L9.58457 4.58982Z" fill="#16B7F7"/>
</svg>
