<svg width="33" height="29" viewBox="0 0 33 29" fill="none" xmlns="http://www.w3.org/2000/svg">
<path d="M10.0951 17.9894C9.84754 17.9944 9.60606 17.9124 9.41271 17.7577C9.21936 17.6031 9.08637 17.3855 9.0369 17.1429L6.56071 4.66667C6.41649 3.94766 6.02779 3.30076 5.46065 2.83586C4.89352 2.37096 4.18292 2.11675 3.4496 2.1164H1.62949C1.34884 2.1164 1.07968 2.00491 0.881229 1.80646C0.682778 1.60801 0.571289 1.33885 0.571289 1.0582C0.571289 0.777549 0.682778 0.508391 0.881229 0.30994C1.07968 0.111489 1.34884 1.10295e-07 1.62949 1.10295e-07H3.4496C4.66933 -0.000248837 5.8517 0.420935 6.79658 1.19227C7.74147 1.9636 8.39083 3.03771 8.63478 4.2328L11.1533 16.7196C11.184 16.8587 11.1864 17.0027 11.1601 17.1428C11.1338 17.2829 11.0795 17.4162 11.0005 17.5348C10.9214 17.6534 10.8192 17.7548 10.7 17.8329C10.5808 17.911 10.447 17.9643 10.3067 17.9894H10.0951Z" fill="#16B7F7"/>
<path d="M11.1541 25.3964H9.18585C8.06352 25.3895 6.98666 24.9521 6.17741 24.1744C5.36816 23.3967 4.88824 22.3381 4.83666 21.2169C4.78508 20.0957 5.16577 18.9975 5.9002 18.1488C6.63463 17.3001 7.66678 16.7657 8.78374 16.6557L28.2652 14.8885L29.9689 6.34882H7.9795C7.69885 6.34882 7.42969 6.23734 7.23124 6.03888C7.03279 5.84043 6.9213 5.57128 6.9213 5.29062C6.9213 5.00997 7.03279 4.74081 7.23124 4.54236C7.42969 4.34391 7.69885 4.23242 7.9795 4.23242H31.2599C31.4162 4.23346 31.5704 4.2691 31.7112 4.3368C31.8521 4.4045 31.9763 4.50257 32.0747 4.62396C32.1782 4.74297 32.2537 4.8836 32.2958 5.03556C32.3379 5.18753 32.3456 5.34698 32.3181 5.50226L30.2017 16.0843C30.157 16.3081 30.0412 16.5114 29.8714 16.664C29.7017 16.8165 29.4872 16.9102 29.2599 16.9308L8.97421 18.7721C8.37642 18.8002 7.81427 19.0646 7.41141 19.5071C7.00855 19.9496 6.798 20.5341 6.82606 21.1319C6.85413 21.7297 7.11852 22.2918 7.56106 22.6947C8.00361 23.0976 8.58806 23.3081 9.18585 23.28H11.1541C11.4348 23.28 11.7039 23.3915 11.9024 23.59C12.1008 23.7884 12.2123 24.0576 12.2123 24.3382C12.2123 24.6189 12.1008 24.8881 11.9024 25.0865C11.7039 25.285 11.4348 25.3964 11.1541 25.3964Z" fill="#16B7F7"/>
<path d="M27.0268 28.5711C26.1896 28.5711 25.3712 28.3228 24.6751 27.8577C23.9791 27.3926 23.4365 26.7315 23.1162 25.9581C22.7958 25.1847 22.712 24.3336 22.8753 23.5125C23.0386 22.6914 23.4417 21.9372 24.0337 21.3452C24.6257 20.7533 25.3799 20.3501 26.201 20.1868C27.0221 20.0235 27.8731 20.1073 28.6466 20.4277C29.42 20.748 30.0811 21.2906 30.5462 21.9867C31.0113 22.6827 31.2596 23.5011 31.2596 24.3383C31.2596 25.4609 30.8136 26.5375 30.0198 27.3313C29.226 28.1251 28.1494 28.5711 27.0268 28.5711ZM27.0268 22.2219C26.6082 22.2219 26.199 22.346 25.8509 22.5786C25.5029 22.8111 25.2316 23.1416 25.0715 23.5284C24.9113 23.9151 24.8694 24.3406 24.951 24.7512C25.0327 25.1617 25.2342 25.5388 25.5302 25.8348C25.8262 26.1308 26.2033 26.3323 26.6139 26.414C27.0244 26.4957 27.4499 26.4538 27.8367 26.2936C28.2234 26.1334 28.5539 25.8621 28.7865 25.5141C29.019 25.166 29.1432 24.7569 29.1432 24.3383C29.1432 23.777 28.9202 23.2387 28.5233 22.8418C28.1264 22.4449 27.5881 22.2219 27.0268 22.2219Z" fill="#16B7F7"/>
<path d="M14.3285 28.5711C13.4913 28.5711 12.673 28.3228 11.9769 27.8577C11.2808 27.3926 10.7383 26.7315 10.4179 25.9581C10.0975 25.1847 10.0137 24.3336 10.177 23.5125C10.3404 22.6914 10.7435 21.9372 11.3355 21.3452C11.9274 20.7533 12.6816 20.3501 13.5027 20.1868C14.3238 20.0235 15.1749 20.1073 15.9483 20.4277C16.7218 20.748 17.3829 21.2906 17.848 21.9867C18.3131 22.6827 18.5613 23.5011 18.5613 24.3383C18.5613 25.4609 18.1154 26.5375 17.3216 27.3313C16.5277 28.1251 15.4511 28.5711 14.3285 28.5711ZM14.3285 22.2219C13.9099 22.2219 13.5007 22.346 13.1527 22.5786C12.8047 22.8111 12.5334 23.1416 12.3732 23.5284C12.213 23.9151 12.1711 24.3406 12.2528 24.7512C12.3344 25.1617 12.536 25.5388 12.832 25.8348C13.128 26.1308 13.5051 26.3323 13.9156 26.414C14.3262 26.4957 14.7517 26.4538 15.1384 26.2936C15.5251 26.1334 15.8557 25.8621 16.0882 25.5141C16.3208 25.166 16.4449 24.7569 16.4449 24.3383C16.4449 23.777 16.2219 23.2387 15.825 22.8418C15.4281 22.4449 14.8898 22.2219 14.3285 22.2219Z" fill="#16B7F7"/>
<path d="M23.8517 25.3977H17.5025C17.2219 25.3977 16.9527 25.2862 16.7543 25.0877C16.5558 24.8893 16.4443 24.6201 16.4443 24.3395C16.4443 24.0588 16.5558 23.7896 16.7543 23.5912C16.9527 23.3927 17.2219 23.2812 17.5025 23.2812H23.8517C24.1324 23.2812 24.4016 23.3927 24.6 23.5912C24.7985 23.7896 24.9099 24.0588 24.9099 24.3395C24.9099 24.6201 24.7985 24.8893 24.6 25.0877C24.4016 25.2862 24.1324 25.3977 23.8517 25.3977Z" fill="#16B7F7"/>
</svg>
