<svg width="20" height="20" viewBox="0 0 20 20" fill="none" xmlns="http://www.w3.org/2000/svg">
<path d="M13.3333 1.66797H6.66667C3.75 1.66797 2.5 3.33464 2.5 5.83464V14.168C2.5 16.668 3.75 18.3346 6.66667 18.3346H13.3333C16.25 18.3346 17.5 16.668 17.5 14.168V5.83464C17.5 3.33464 16.25 1.66797 13.3333 1.66797ZM6.66667 10.2096H10C10.1658 10.2096 10.3247 10.2755 10.4419 10.3927C10.5592 10.5099 10.625 10.6689 10.625 10.8346C10.625 11.0004 10.5592 11.1594 10.4419 11.2766C10.3247 11.3938 10.1658 11.4596 10 11.4596H6.66667C6.50091 11.4596 6.34193 11.3938 6.22472 11.2766C6.10751 11.1594 6.04167 11.0004 6.04167 10.8346C6.04167 10.6689 6.10751 10.5099 6.22472 10.3927C6.34193 10.2755 6.50091 10.2096 6.66667 10.2096ZM13.3333 14.793H6.66667C6.50091 14.793 6.34193 14.7271 6.22472 14.6099C6.10751 14.4927 6.04167 14.3337 6.04167 14.168C6.04167 14.0022 6.10751 13.8432 6.22472 13.726C6.34193 13.6088 6.50091 13.543 6.66667 13.543H13.3333C13.4991 13.543 13.6581 13.6088 13.7753 13.726C13.8925 13.8432 13.9583 14.0022 13.9583 14.168C13.9583 14.3337 13.8925 14.4927 13.7753 14.6099C13.6581 14.7271 13.4991 14.793 13.3333 14.793ZM15.4167 7.70964H13.75C13.449 7.70985 13.1509 7.65073 12.8728 7.53564C12.5946 7.42055 12.3419 7.25176 12.1291 7.03891C11.9162 6.82607 11.7474 6.57335 11.6323 6.29521C11.5172 6.01707 11.4581 5.71898 11.4583 5.41797V3.7513C11.4583 3.58554 11.5242 3.42657 11.6414 3.30936C11.7586 3.19215 11.9176 3.1263 12.0833 3.1263C12.2491 3.1263 12.4081 3.19215 12.5253 3.30936C12.6425 3.42657 12.7083 3.58554 12.7083 3.7513V5.41797C12.7083 5.55476 12.7353 5.69022 12.7876 5.8166C12.84 5.94298 12.9167 6.05781 13.0134 6.15454C13.2088 6.34989 13.4737 6.45964 13.75 6.45964H15.4167C15.5824 6.45964 15.7414 6.52548 15.8586 6.64269C15.9758 6.7599 16.0417 6.91888 16.0417 7.08464C16.0417 7.2504 15.9758 7.40937 15.8586 7.52658C15.7414 7.64379 15.5824 7.70964 15.4167 7.70964Z" fill="#16B7F7"/>
</svg>
