<svg width="16" height="16" viewBox="0 0 16 16" fill="none" xmlns="http://www.w3.org/2000/svg">
<path d="M3.63199 0C3.27999 0.016 2.81599 0.0479999 2.60799 0.0959998C2.288 0.16 1.984 0.256 1.744 0.383999C1.44 0.527999 1.184 0.719999 0.959998 0.943998C0.719999 1.184 0.527999 1.44 0.383999 1.744C0.255999 1.984 0.16 2.288 0.0959998 2.608C0.0479999 2.81599 0.016 3.27999 0.016 3.63199C0 3.77599 0 3.96799 0 4.06399V11.936V12.368C0.016 12.72 0.0479999 13.184 0.0959998 13.392C0.16 13.712 0.255999 14.016 0.383999 14.256C0.527999 14.56 0.719999 14.816 0.943998 15.04C1.184 15.28 1.44 15.472 1.744 15.616C1.984 15.744 2.288 15.84 2.60799 15.904C2.81599 15.952 3.27999 15.984 3.63199 15.984C3.77599 16 3.96799 16 4.06399 16H11.936H12.368C12.72 15.984 13.184 15.952 13.392 15.904C13.712 15.84 14.016 15.744 14.256 15.616C14.56 15.472 14.816 15.28 15.04 15.056C15.28 14.816 15.472 14.56 15.616 14.256C15.744 14.016 15.84 13.712 15.904 13.392C15.952 13.184 15.984 12.72 15.984 12.368C16 12.224 16 12.032 16 11.936V3.63199C15.984 3.27999 15.952 2.81599 15.904 2.608C15.84 2.288 15.744 1.984 15.616 1.744C15.472 1.44 15.28 1.184 15.056 0.959998C14.816 0.719999 14.56 0.527999 14.256 0.383999C14.016 0.256 13.712 0.16 13.392 0.0959998C13.184 0.0479999 12.72 0.016 12.368 0.016C12.224 -1.86264e-09 12.032 0 11.936 0H3.63199Z" fill="#16B7F7"/>
<path fill-rule="evenodd" clip-rule="evenodd" d="M10.7736 9.05328C10.6311 8.98197 9.93045 8.63732 9.79979 8.58978C9.66917 8.54225 9.5742 8.51847 9.4792 8.6611C9.38417 8.80372 9.11108 9.1246 9.02795 9.21969C8.94483 9.31475 8.8617 9.32666 8.7192 9.25531C8.57667 9.18403 8.11751 9.0336 7.5732 8.54822C7.14958 8.1705 6.86355 7.70394 6.78042 7.56132C6.6973 7.41869 6.77158 7.3416 6.84292 7.27057C6.90702 7.20679 6.98542 7.10419 7.05667 7.02101C7.12792 6.93782 7.15167 6.87838 7.19917 6.78332C7.24667 6.68826 7.22292 6.60504 7.1873 6.53373C7.15167 6.46241 6.86667 5.76123 6.74792 5.47598C6.63227 5.1982 6.51477 5.23579 6.4273 5.23142C6.34427 5.22729 6.24917 5.22642 6.15417 5.22642C6.05914 5.22642 5.9048 5.26207 5.77414 5.40467C5.64352 5.54729 5.27539 5.89198 5.27539 6.59316C5.27539 7.29435 5.78602 7.97179 5.85727 8.06688C5.92855 8.16197 6.86217 9.60091 8.2917 10.218C8.6317 10.3648 8.89714 10.4524 9.10411 10.5181C9.44548 10.6265 9.75617 10.6112 10.0017 10.5745C10.2755 10.5336 10.8448 10.2299 10.9636 9.89713C11.0823 9.56435 11.0823 9.2791 11.0467 9.21969C11.0111 9.16025 10.9161 9.1246 10.7736 9.05328ZM8.17336 12.6024H8.17145C7.32083 12.6021 6.48655 12.3737 5.75874 11.9419L5.58564 11.8392L3.79149 12.3097L4.2704 10.561L4.15765 10.3817C3.68315 9.62719 3.43255 8.75513 3.4329 7.85972C3.43393 5.24688 5.56049 3.12114 8.17526 3.12114C9.44142 3.12164 10.6316 3.61523 11.5266 4.51095C12.4216 5.40667 12.9142 6.59732 12.9138 7.86354C12.9127 10.4766 10.7862 12.6024 8.17336 12.6024ZM12.2078 3.83029C11.131 2.75261 9.69901 2.15883 8.17333 2.1582C5.02974 2.1582 2.47121 4.71573 2.46996 7.85935C2.46956 8.86422 2.73215 9.84516 3.23124 10.7097L2.42212 13.6642L5.44555 12.8714C6.27858 13.3257 7.21648 13.565 8.17105 13.5654H8.17339C11.3167 13.5654 13.8754 11.0075 13.8767 7.86391C13.8773 6.34045 13.2846 4.90798 12.2078 3.83029Z" fill="white"/>
</svg>
