<svg width="30" height="30" viewBox="0 0 30 30" fill="none" xmlns="http://www.w3.org/2000/svg">
<g clip-path="url(#clip0_621_15143)">
<path d="M27.5 14.0625H24.95C24.7285 11.7472 23.7079 9.58134 22.0633 7.93674C20.4187 6.29214 18.2528 5.27146 15.9375 5.05V2.5C15.9375 2.25136 15.8387 2.0129 15.6629 1.83709C15.4871 1.66127 15.2486 1.5625 15 1.5625C14.7514 1.5625 14.5129 1.66127 14.3371 1.83709C14.1613 2.0129 14.0625 2.25136 14.0625 2.5V5.05C11.7472 5.27146 9.58134 6.29214 7.93674 7.93674C6.29214 9.58134 5.27146 11.7472 5.05 14.0625H2.5C2.25136 14.0625 2.0129 14.1613 1.83709 14.3371C1.66127 14.5129 1.5625 14.7514 1.5625 15C1.5625 15.2486 1.66127 15.4871 1.83709 15.6629C2.0129 15.8387 2.25136 15.9375 2.5 15.9375H5.05C5.27146 18.2528 6.29214 20.4187 7.93674 22.0633C9.58134 23.7079 11.7472 24.7285 14.0625 24.95V27.5C14.0625 27.7486 14.1613 27.9871 14.3371 28.1629C14.5129 28.3387 14.7514 28.4375 15 28.4375C15.2486 28.4375 15.4871 28.3387 15.6629 28.1629C15.8387 27.9871 15.9375 27.7486 15.9375 27.5V24.95C18.2528 24.7285 20.4187 23.7079 22.0633 22.0633C23.7079 20.4187 24.7285 18.2528 24.95 15.9375H27.5C27.7486 15.9375 27.9871 15.8387 28.1629 15.6629C28.3387 15.4871 28.4375 15.2486 28.4375 15C28.4375 14.7514 28.3387 14.5129 28.1629 14.3371C27.9871 14.1613 27.7486 14.0625 27.5 14.0625ZM15 18.9C14.2287 18.9 13.4746 18.6713 12.8333 18.2427C12.1919 17.8142 11.6921 17.2051 11.3969 16.4925C11.1017 15.7798 11.0245 14.9957 11.1749 14.2391C11.3254 13.4826 11.6969 12.7877 12.2423 12.2423C12.7877 11.6969 13.4826 11.3254 14.2391 11.1749C14.9957 11.0245 15.7798 11.1017 16.4925 11.3969C17.2051 11.6921 17.8142 12.1919 18.2427 12.8333C18.6713 13.4746 18.9 14.2287 18.9 15C18.8987 16.0339 18.4874 17.0251 17.7563 17.7563C17.0251 18.4874 16.0339 18.8987 15 18.9Z" fill="#16B7F7"/>
</g>
<defs>
<clipPath id="clip0_621_15143">
<rect width="30" height="30" fill="white"/>
</clipPath>
</defs>
</svg>
