<svg width="18" height="16" viewBox="0 0 18 16" fill="none" xmlns="http://www.w3.org/2000/svg">
<path d="M6.96878 7.07002C7.78545 7.55085 8.39294 7.7917 9.00044 7.7917C9.60877 7.7917 10.2163 7.55169 11.0338 7.07002L13.4855 5.61999C13.783 5.44499 13.8813 5.06169 13.7054 4.76419C13.5304 4.46669 13.1471 4.36831 12.8496 4.54414L10.3988 5.99336C9.17046 6.71586 8.83046 6.71586 7.60379 5.99336L5.15213 4.54333C4.85546 4.36749 4.47209 4.46663 4.29626 4.7633C4.12042 5.05996 4.21964 5.44334 4.51631 5.61917L6.96878 7.07002Z" fill="#333333"/>
<path fill-rule="evenodd" clip-rule="evenodd" d="M6.56773 15.6733C7.38606 15.6942 8.19358 15.7051 9.00108 15.7051C9.80858 15.7051 10.6161 15.6942 11.4344 15.6733L11.4356 15.6733C14.1332 15.605 15.6196 15.5674 16.7403 14.4475C17.8586 13.32 17.8894 11.8734 17.9453 9.24585C17.9628 8.40668 17.9628 7.59169 17.9453 6.75252C17.8894 4.12502 17.8586 2.67751 16.7377 1.54834C15.6186 0.43084 14.132 0.392552 11.4336 0.324219C9.79612 0.282552 8.20442 0.282552 6.56692 0.324219L6.56579 0.324247C3.86817 0.392563 2.38177 0.430205 1.26109 1.55005C0.142757 2.67755 0.111927 4.12421 0.0560937 6.75171C0.0385938 7.59088 0.0385938 8.40587 0.0560937 9.24504C0.111927 11.8725 0.14278 13.3201 1.26361 14.4492C2.38278 15.5667 3.8694 15.605 6.56773 15.6733ZM2.14862 13.5658C1.38112 12.7933 1.35695 11.6725 1.30528 9.21834C1.28778 8.39668 1.28778 7.59834 1.30528 6.77751C1.35695 4.32334 1.3811 3.20339 2.1461 2.43172C2.91187 1.66595 4.06672 1.63668 6.59795 1.57253C8.21462 1.53086 9.78613 1.53084 11.402 1.57251C13.9336 1.63668 15.0886 1.66668 15.8528 2.43001C16.6203 3.20251 16.6444 4.32334 16.6961 6.77751C16.7136 7.59917 16.7136 8.39751 16.6961 9.21834C16.6444 11.6725 16.6202 12.7925 15.8552 13.5642C15.0896 14.3299 13.9349 14.3592 11.4042 14.4233L11.4028 14.4233C9.78611 14.465 8.2153 14.465 6.59947 14.4233C4.0678 14.3592 2.91279 14.3292 2.14862 13.5658Z" fill="#333333"/>
</svg>
