<svg width="18" height="19" viewBox="0 0 18 19" fill="none" xmlns="http://www.w3.org/2000/svg">
<path fill-rule="evenodd" clip-rule="evenodd" d="M9 0.105469C6.58375 0.105469 4.625 2.06422 4.625 4.48047C4.625 6.89671 6.58375 8.85547 9 8.85547C11.4162 8.85547 13.375 6.89671 13.375 4.48047C13.375 2.06422 11.4162 0.105469 9 0.105469ZM5.875 4.48047C5.875 2.75458 7.27411 1.35547 9 1.35547C10.7259 1.35547 12.125 2.75458 12.125 4.48047C12.125 6.20636 10.7259 7.60547 9 7.60547C7.27411 7.60547 5.875 6.20636 5.875 4.48047Z" fill="#333333"/>
<path fill-rule="evenodd" clip-rule="evenodd" d="M14.1907 11.6298C14.0552 11.5533 13.9355 11.4858 13.8386 11.4281C10.8769 9.66459 7.12341 9.66459 4.1617 11.4281C4.06477 11.4858 3.94504 11.5534 3.80949 11.6299C3.21548 11.965 2.31755 12.4716 1.70241 13.0737C1.31769 13.4502 0.952145 13.9465 0.88569 14.5544C0.815018 15.201 1.09707 15.8077 1.66292 16.3468C2.63913 17.2768 3.81061 18.0221 5.32587 18.0221H12.6744C14.1897 18.0221 15.3612 17.2768 16.3374 16.3468C16.9032 15.8077 17.1853 15.201 17.1146 14.5544C17.0481 13.9465 16.6826 13.4502 16.2979 13.0737C15.6827 12.4716 14.7847 11.9649 14.1907 11.6298ZM4.80122 12.5021C7.36886 10.9732 10.6314 10.9732 13.1991 12.5021C13.339 12.5854 13.4923 12.6724 13.6529 12.7635C14.2467 13.1004 14.9401 13.4938 15.4235 13.967C15.7236 14.2607 15.8515 14.503 15.872 14.6903C15.8883 14.8389 15.8507 15.084 15.4751 15.4418C14.6119 16.2641 13.7348 16.7721 12.6744 16.7721H5.32587C4.2655 16.7721 3.38835 16.2641 2.52514 15.4418C2.14962 15.084 2.11204 14.8389 2.12829 14.6903C2.14875 14.503 2.27668 14.2607 2.57679 13.967C3.06019 13.4938 3.75355 13.1004 4.34738 12.7635C4.50794 12.6725 4.66133 12.5854 4.80122 12.5021Z" fill="#333333"/>
</svg>
