<svg width="23" height="22" viewBox="0 0 23 22" fill="none" xmlns="http://www.w3.org/2000/svg">
<path d="M18.25 1.0625C18.25 0.648286 17.9142 0.3125 17.5 0.3125C17.0858 0.3125 16.75 0.648286 16.75 1.0625V4.3125H13.5C13.0858 4.3125 12.75 4.64829 12.75 5.0625C12.75 5.47671 13.0858 5.8125 13.5 5.8125H16.75V9.0625C16.75 9.47671 17.0858 9.8125 17.5 9.8125C17.9142 9.8125 18.25 9.47671 18.25 9.0625V5.8125H21.5C21.9142 5.8125 22.25 5.47671 22.25 5.0625C22.25 4.64829 21.9142 4.3125 21.5 4.3125H18.25V1.0625Z" fill="#757575"/>
<path fill-rule="evenodd" clip-rule="evenodd" d="M11 1.3125L10.9428 1.3125C8.75212 1.31249 7.03144 1.31248 5.68802 1.49309C4.31137 1.67818 3.21911 2.06521 2.36091 2.92341C1.50272 3.78161 1.11568 4.87387 0.930594 6.25052C0.749976 7.59394 0.749987 9.31462 0.75 11.5053V11.6197C0.749987 13.8104 0.749976 15.5311 0.930594 16.8745C1.11568 18.2511 1.50272 19.3434 2.36091 20.2016C3.21911 21.0598 4.31137 21.4468 5.68802 21.6319C7.03144 21.8125 8.7521 21.8125 10.9428 21.8125H11.0572C13.2479 21.8125 14.9686 21.8125 16.312 21.6319C17.6886 21.4468 18.7809 21.0598 19.6391 20.2016C20.4973 19.3434 20.8843 18.2511 21.0694 16.8745C21.25 15.5311 21.25 13.8104 21.25 11.6197V11.0625C21.25 10.6483 20.9142 10.3125 20.5 10.3125C20.0858 10.3125 19.75 10.6483 19.75 11.0625V11.5625C19.75 12.8315 19.7495 13.8985 19.7198 14.8084C18.7948 14.4801 17.8458 14.3118 16.8875 14.3126C15.2587 14.3065 13.6642 14.7833 12.1681 15.6904C11.8405 15.3754 11.4922 15.0776 11.1244 14.7989C8.92785 13.1345 6.17813 12.2577 3.36512 12.3152C2.99284 12.3145 2.6209 12.3291 2.25036 12.359C2.25002 12.1026 2.25 11.8373 2.25 11.5625C2.25 9.30213 2.25159 7.6823 2.41722 6.4504C2.57994 5.24007 2.88853 4.51712 3.42157 3.98407C3.95462 3.45103 4.67757 3.14244 5.8879 2.97972C7.1198 2.81409 8.73963 2.8125 11 2.8125C11.4142 2.8125 11.75 2.47671 11.75 2.0625C11.75 1.64829 11.4142 1.3125 11 1.3125ZM13.1997 16.8244C14.0153 17.8523 14.6408 19.0088 15.043 20.2456C15.43 20.2217 15.7847 20.1893 16.1121 20.1453C17.3224 19.9826 18.0454 19.674 18.5784 19.1409C19.1115 18.6079 19.4201 17.8849 19.5828 16.6746C19.5958 16.5778 19.6078 16.4787 19.6189 16.377C18.715 15.9987 17.7994 15.8116 16.8872 15.8126L16.8835 15.8126C15.6513 15.8077 14.4099 16.1421 13.1997 16.8244ZM10.2185 15.9945C11.721 17.133 12.8403 18.6275 13.4728 20.3005C12.7445 20.3122 11.926 20.3125 11 20.3125C8.73963 20.3125 7.1198 20.3109 5.8879 20.1453C4.67757 19.9826 3.95462 19.674 3.42157 19.1409C2.88853 18.6079 2.57994 17.8849 2.41722 16.6746C2.31416 15.9081 2.27461 14.9914 2.25944 13.8636C2.62838 13.8304 2.99909 13.8142 3.37022 13.8152L3.38794 13.815C5.87572 13.7624 8.2965 14.5381 10.2185 15.9945Z" fill="#757575"/>
</svg>
